<mxfile host="app.diagrams.net" agent="Mozilla/5.0 (Windows NT 10.0; Win64; x64; rv:140.0) Gecko/20100101 Firefox/140.0" version="28.0.6">
  <diagram name="Page-1" id="od4jVRcSYEkzajmZHbIJ">
    <mxGraphModel grid="1" page="1" gridSize="10" guides="1" tooltips="1" connect="1" arrows="1" fold="1" pageScale="1" pageWidth="850" pageHeight="1100" math="0" shadow="0">
      <root>
        <mxCell id="0" />
        <mxCell id="1" parent="0" />
        <mxCell id="b0TugOnntlRWFown4FGA-1" value="enum Colour" style="swimlane;fontStyle=0;childLayout=stackLayout;horizontal=1;startSize=30;horizontalStack=0;resizeParent=1;resizeParentMax=0;resizeLast=0;collapsible=1;marginBottom=0;whiteSpace=wrap;html=1;" vertex="1" parent="1">
          <mxGeometry x="2280" y="1360" width="140" height="80" as="geometry" />
        </mxCell>
        <mxCell id="b0TugOnntlRWFown4FGA-2" value="{Black, White, None}" style="text;strokeColor=none;fillColor=none;align=left;verticalAlign=middle;spacingLeft=4;spacingRight=4;overflow=hidden;points=[[0,0.5],[1,0.5]];portConstraint=eastwest;rotatable=0;whiteSpace=wrap;html=1;" vertex="1" parent="b0TugOnntlRWFown4FGA-1">
          <mxGeometry y="30" width="140" height="50" as="geometry" />
        </mxCell>
        <mxCell id="b0TugOnntlRWFown4FGA-3" value="Board" style="swimlane;fontStyle=0;childLayout=stackLayout;horizontal=1;startSize=30;horizontalStack=0;resizeParent=1;resizeParentMax=0;resizeLast=0;collapsible=1;marginBottom=0;whiteSpace=wrap;html=1;" vertex="1" parent="1">
          <mxGeometry x="1160" y="440" width="280" height="1170" as="geometry" />
        </mxCell>
        <mxCell id="b0TugOnntlRWFown4FGA-169" value="- size : int" style="text;strokeColor=none;fillColor=none;align=left;verticalAlign=middle;spacingLeft=4;spacingRight=4;overflow=hidden;points=[[0,0.5],[1,0.5]];portConstraint=eastwest;rotatable=0;whiteSpace=wrap;html=1;" vertex="1" parent="b0TugOnntlRWFown4FGA-3">
          <mxGeometry y="30" width="280" height="30" as="geometry" />
        </mxCell>
        <mxCell id="b0TugOnntlRWFown4FGA-4" value="- board : Piece***" style="text;strokeColor=none;fillColor=none;align=left;verticalAlign=middle;spacingLeft=4;spacingRight=4;overflow=hidden;points=[[0,0.5],[1,0.5]];portConstraint=eastwest;rotatable=0;whiteSpace=wrap;html=1;" vertex="1" parent="b0TugOnntlRWFown4FGA-3">
          <mxGeometry y="60" width="280" height="30" as="geometry" />
        </mxCell>
        <mxCell id="b0TugOnntlRWFown4FGA-5" value="- setupMode : bool" style="text;strokeColor=none;fillColor=none;align=left;verticalAlign=middle;spacingLeft=4;spacingRight=4;overflow=hidden;points=[[0,0.5],[1,0.5]];portConstraint=eastwest;rotatable=0;whiteSpace=wrap;html=1;" vertex="1" parent="b0TugOnntlRWFown4FGA-3">
          <mxGeometry y="90" width="280" height="30" as="geometry" />
        </mxCell>
        <mxCell id="b0TugOnntlRWFown4FGA-8" value="- observers : vector&amp;lt;BoardObserver*&amp;gt;" style="text;strokeColor=none;fillColor=none;align=left;verticalAlign=middle;spacingLeft=4;spacingRight=4;overflow=hidden;points=[[0,0.5],[1,0.5]];portConstraint=eastwest;rotatable=0;whiteSpace=wrap;html=1;" vertex="1" parent="b0TugOnntlRWFown4FGA-3">
          <mxGeometry y="120" width="280" height="30" as="geometry" />
        </mxCell>
        <mxCell id="b0TugOnntlRWFown4FGA-170" value="- checkCache : bool" style="text;strokeColor=none;fillColor=none;align=left;verticalAlign=middle;spacingLeft=4;spacingRight=4;overflow=hidden;points=[[0,0.5],[1,0.5]];portConstraint=eastwest;rotatable=0;whiteSpace=wrap;html=1;" vertex="1" parent="b0TugOnntlRWFown4FGA-3">
          <mxGeometry y="150" width="280" height="30" as="geometry" />
        </mxCell>
        <mxCell id="b0TugOnntlRWFown4FGA-171" value="- checkmateCache : bool" style="text;strokeColor=none;fillColor=none;align=left;verticalAlign=middle;spacingLeft=4;spacingRight=4;overflow=hidden;points=[[0,0.5],[1,0.5]];portConstraint=eastwest;rotatable=0;whiteSpace=wrap;html=1;" vertex="1" parent="b0TugOnntlRWFown4FGA-3">
          <mxGeometry y="180" width="280" height="30" as="geometry" />
        </mxCell>
        <mxCell id="b0TugOnntlRWFown4FGA-172" value="- stalemateCache : bool" style="text;strokeColor=none;fillColor=none;align=left;verticalAlign=middle;spacingLeft=4;spacingRight=4;overflow=hidden;points=[[0,0.5],[1,0.5]];portConstraint=eastwest;rotatable=0;whiteSpace=wrap;html=1;" vertex="1" parent="b0TugOnntlRWFown4FGA-3">
          <mxGeometry y="210" width="280" height="30" as="geometry" />
        </mxCell>
        <mxCell id="b0TugOnntlRWFown4FGA-6" value="- ibi : InvisibleBoardInfo" style="text;strokeColor=none;fillColor=none;align=left;verticalAlign=middle;spacingLeft=4;spacingRight=4;overflow=hidden;points=[[0,0.5],[1,0.5]];portConstraint=eastwest;rotatable=0;whiteSpace=wrap;html=1;" vertex="1" parent="b0TugOnntlRWFown4FGA-3">
          <mxGeometry y="240" width="280" height="30" as="geometry" />
        </mxCell>
        <mxCell id="b0TugOnntlRWFown4FGA-294" value="" style="endArrow=none;html=1;rounded=0;exitX=0;exitY=0.5;exitDx=0;exitDy=0;entryX=1;entryY=0.5;entryDx=0;entryDy=0;" edge="1" parent="b0TugOnntlRWFown4FGA-3">
          <mxGeometry width="50" height="50" relative="1" as="geometry">
            <mxPoint y="270" as="sourcePoint" />
            <mxPoint x="280" y="270" as="targetPoint" />
          </mxGeometry>
        </mxCell>
        <mxCell id="b0TugOnntlRWFown4FGA-7" value="- notifyObserversMove( latest : MoveInfo ) : void" style="text;strokeColor=none;fillColor=none;align=left;verticalAlign=middle;spacingLeft=4;spacingRight=4;overflow=hidden;points=[[0,0.5],[1,0.5]];portConstraint=eastwest;rotatable=0;whiteSpace=wrap;html=1;" vertex="1" parent="b0TugOnntlRWFown4FGA-3">
          <mxGeometry y="270" width="280" height="30" as="geometry" />
        </mxCell>
        <mxCell id="b0TugOnntlRWFown4FGA-173" value="- notifyObserversUndo( latest : MoveInfo ) : void" style="text;strokeColor=none;fillColor=none;align=left;verticalAlign=middle;spacingLeft=4;spacingRight=4;overflow=hidden;points=[[0,0.5],[1,0.5]];portConstraint=eastwest;rotatable=0;whiteSpace=wrap;html=1;" vertex="1" parent="b0TugOnntlRWFown4FGA-3">
          <mxGeometry y="300" width="280" height="30" as="geometry" />
        </mxCell>
        <mxCell id="b0TugOnntlRWFown4FGA-174" value="- notifyObserversSetup( latest : MoveInfo ) : void" style="text;strokeColor=none;fillColor=none;align=left;verticalAlign=middle;spacingLeft=4;spacingRight=4;overflow=hidden;points=[[0,0.5],[1,0.5]];portConstraint=eastwest;rotatable=0;whiteSpace=wrap;html=1;" vertex="1" parent="b0TugOnntlRWFown4FGA-3">
          <mxGeometry y="330" width="280" height="30" as="geometry" />
        </mxCell>
        <mxCell id="b0TugOnntlRWFown4FGA-9" value="- initHomeRow( c : Colour, row : int) : void" style="text;strokeColor=none;fillColor=none;align=left;verticalAlign=middle;spacingLeft=4;spacingRight=4;overflow=hidden;points=[[0,0.5],[1,0.5]];portConstraint=eastwest;rotatable=0;whiteSpace=wrap;html=1;" vertex="1" parent="b0TugOnntlRWFown4FGA-3">
          <mxGeometry y="360" width="280" height="30" as="geometry" />
        </mxCell>
        <mxCell id="b0TugOnntlRWFown4FGA-10" value="- applyMove( oldPos : Position&amp;amp;, newPos: Position&amp;amp;, capturedPiece : Piece* ) : void" style="text;strokeColor=none;fillColor=none;align=left;verticalAlign=middle;spacingLeft=4;spacingRight=4;overflow=hidden;points=[[0,0.5],[1,0.5]];portConstraint=eastwest;rotatable=0;whiteSpace=wrap;html=1;" vertex="1" parent="b0TugOnntlRWFown4FGA-3">
          <mxGeometry y="390" width="280" height="30" as="geometry" />
        </mxCell>
        <mxCell id="b0TugOnntlRWFown4FGA-11" value="- applyMove( move : MoveInfo&amp;amp; ) : void" style="text;strokeColor=none;fillColor=none;align=left;verticalAlign=middle;spacingLeft=4;spacingRight=4;overflow=hidden;points=[[0,0.5],[1,0.5]];portConstraint=eastwest;rotatable=0;whiteSpace=wrap;html=1;" vertex="1" parent="b0TugOnntlRWFown4FGA-3">
          <mxGeometry y="420" width="280" height="30" as="geometry" />
        </mxCell>
        <mxCell id="b0TugOnntlRWFown4FGA-176" value="- undoMove( move : MoveInfo&amp;amp; ) : void" style="text;strokeColor=none;fillColor=none;align=left;verticalAlign=middle;spacingLeft=4;spacingRight=4;overflow=hidden;points=[[0,0.5],[1,0.5]];portConstraint=eastwest;rotatable=0;whiteSpace=wrap;html=1;" vertex="1" parent="b0TugOnntlRWFown4FGA-3">
          <mxGeometry y="450" width="280" height="30" as="geometry" />
        </mxCell>
        <mxCell id="b0TugOnntlRWFown4FGA-175" value="- undoMove( oldPos : Position&amp;amp;, newPos: Position&amp;amp;, capturedPiece : Piece* ) : void" style="text;strokeColor=none;fillColor=none;align=left;verticalAlign=middle;spacingLeft=4;spacingRight=4;overflow=hidden;points=[[0,0.5],[1,0.5]];portConstraint=eastwest;rotatable=0;whiteSpace=wrap;html=1;" vertex="1" parent="b0TugOnntlRWFown4FGA-3">
          <mxGeometry y="480" width="280" height="30" as="geometry" />
        </mxCell>
        <mxCell id="b0TugOnntlRWFown4FGA-177" value="- calculateCheck( c : Colour ) : bool" style="text;strokeColor=none;fillColor=none;align=left;verticalAlign=middle;spacingLeft=4;spacingRight=4;overflow=hidden;points=[[0,0.5],[1,0.5]];portConstraint=eastwest;rotatable=0;whiteSpace=wrap;html=1;" vertex="1" parent="b0TugOnntlRWFown4FGA-3">
          <mxGeometry y="510" width="280" height="30" as="geometry" />
        </mxCell>
        <mxCell id="b0TugOnntlRWFown4FGA-179" value="- calculateCheckmate( c : Colour, useCache : bool ) : bool" style="text;strokeColor=none;fillColor=none;align=left;verticalAlign=middle;spacingLeft=4;spacingRight=4;overflow=hidden;points=[[0,0.5],[1,0.5]];portConstraint=eastwest;rotatable=0;whiteSpace=wrap;html=1;" vertex="1" parent="b0TugOnntlRWFown4FGA-3">
          <mxGeometry y="540" width="280" height="30" as="geometry" />
        </mxCell>
        <mxCell id="b0TugOnntlRWFown4FGA-180" value="- calculateStalemate( c : Colour, useCache : bool ) : bool" style="text;strokeColor=none;fillColor=none;align=left;verticalAlign=middle;spacingLeft=4;spacingRight=4;overflow=hidden;points=[[0,0.5],[1,0.5]];portConstraint=eastwest;rotatable=0;whiteSpace=wrap;html=1;" vertex="1" parent="b0TugOnntlRWFown4FGA-3">
          <mxGeometry y="570" width="280" height="30" as="geometry" />
        </mxCell>
        <mxCell id="b0TugOnntlRWFown4FGA-181" value="- reevaluateCheckCache( c : Colour ) : bool" style="text;strokeColor=none;fillColor=none;align=left;verticalAlign=middle;spacingLeft=4;spacingRight=4;overflow=hidden;points=[[0,0.5],[1,0.5]];portConstraint=eastwest;rotatable=0;whiteSpace=wrap;html=1;" vertex="1" parent="b0TugOnntlRWFown4FGA-3">
          <mxGeometry y="600" width="280" height="30" as="geometry" />
        </mxCell>
        <mxCell id="b0TugOnntlRWFown4FGA-183" value="- reevaluateCheckmateCache( c : Colour, useCache : bool ) : bool" style="text;strokeColor=none;fillColor=none;align=left;verticalAlign=middle;spacingLeft=4;spacingRight=4;overflow=hidden;points=[[0,0.5],[1,0.5]];portConstraint=eastwest;rotatable=0;whiteSpace=wrap;html=1;" vertex="1" parent="b0TugOnntlRWFown4FGA-3">
          <mxGeometry y="630" width="280" height="30" as="geometry" />
        </mxCell>
        <mxCell id="b0TugOnntlRWFown4FGA-182" value="- reevaluateStalemateCache( c : Colour, useCache : bool ) : bool" style="text;strokeColor=none;fillColor=none;align=left;verticalAlign=middle;spacingLeft=4;spacingRight=4;overflow=hidden;points=[[0,0.5],[1,0.5]];portConstraint=eastwest;rotatable=0;whiteSpace=wrap;html=1;" vertex="1" parent="b0TugOnntlRWFown4FGA-3">
          <mxGeometry y="660" width="280" height="30" as="geometry" />
        </mxCell>
        <mxCell id="b0TugOnntlRWFown4FGA-185" value="- reevaluateCheckStalemateCheckmate( c : Colour ) : bool" style="text;strokeColor=none;fillColor=none;align=left;verticalAlign=middle;spacingLeft=4;spacingRight=4;overflow=hidden;points=[[0,0.5],[1,0.5]];portConstraint=eastwest;rotatable=0;whiteSpace=wrap;html=1;" vertex="1" parent="b0TugOnntlRWFown4FGA-3">
          <mxGeometry y="690" width="280" height="30" as="geometry" />
        </mxCell>
        <mxCell id="b0TugOnntlRWFown4FGA-188" value="- updateCastlingRights() : void" style="text;strokeColor=none;fillColor=none;align=left;verticalAlign=middle;spacingLeft=4;spacingRight=4;overflow=hidden;points=[[0,0.5],[1,0.5]];portConstraint=eastwest;rotatable=0;whiteSpace=wrap;html=1;" vertex="1" parent="b0TugOnntlRWFown4FGA-3">
          <mxGeometry y="720" width="280" height="30" as="geometry" />
        </mxCell>
        <mxCell id="b0TugOnntlRWFown4FGA-187" value="- validNextMove( c : Colour ) : bool" style="text;strokeColor=none;fillColor=none;align=left;verticalAlign=middle;spacingLeft=4;spacingRight=4;overflow=hidden;points=[[0,0.5],[1,0.5]];portConstraint=eastwest;rotatable=0;whiteSpace=wrap;html=1;" vertex="1" parent="b0TugOnntlRWFown4FGA-3">
          <mxGeometry y="750" width="280" height="30" as="geometry" />
        </mxCell>
        <mxCell id="b0TugOnntlRWFown4FGA-13" value="+ init() : void" style="text;strokeColor=none;fillColor=none;align=left;verticalAlign=middle;spacingLeft=4;spacingRight=4;overflow=hidden;points=[[0,0.5],[1,0.5]];portConstraint=eastwest;rotatable=0;whiteSpace=wrap;html=1;" vertex="1" parent="b0TugOnntlRWFown4FGA-3">
          <mxGeometry y="780" width="280" height="30" as="geometry" />
        </mxCell>
        <mxCell id="b0TugOnntlRWFown4FGA-12" value="+ getValidMoves( c : Colour ) : vector&amp;lt;MoveInfo&amp;gt;" style="text;strokeColor=none;fillColor=none;align=left;verticalAlign=middle;spacingLeft=4;spacingRight=4;overflow=hidden;points=[[0,0.5],[1,0.5]];portConstraint=eastwest;rotatable=0;whiteSpace=wrap;html=1;" vertex="1" parent="b0TugOnntlRWFown4FGA-3">
          <mxGeometry y="810" width="280" height="30" as="geometry" />
        </mxCell>
        <mxCell id="b0TugOnntlRWFown4FGA-14" value="+ addPiece( piece : Piece* ) : void" style="text;strokeColor=none;fillColor=none;align=left;verticalAlign=middle;spacingLeft=4;spacingRight=4;overflow=hidden;points=[[0,0.5],[1,0.5]];portConstraint=eastwest;rotatable=0;whiteSpace=wrap;html=1;" vertex="1" parent="b0TugOnntlRWFown4FGA-3">
          <mxGeometry y="840" width="280" height="30" as="geometry" />
        </mxCell>
        <mxCell id="b0TugOnntlRWFown4FGA-15" value="+ removePiece( pos : Position ) : void" style="text;strokeColor=none;fillColor=none;align=left;verticalAlign=middle;spacingLeft=4;spacingRight=4;overflow=hidden;points=[[0,0.5],[1,0.5]];portConstraint=eastwest;rotatable=0;whiteSpace=wrap;html=1;" vertex="1" parent="b0TugOnntlRWFown4FGA-3">
          <mxGeometry y="870" width="280" height="30" as="geometry" />
        </mxCell>
        <mxCell id="b0TugOnntlRWFown4FGA-16" value="+ leaveSetupMode( colour : Colour ) : void" style="text;strokeColor=none;fillColor=none;align=left;verticalAlign=middle;spacingLeft=4;spacingRight=4;overflow=hidden;points=[[0,0.5],[1,0.5]];portConstraint=eastwest;rotatable=0;whiteSpace=wrap;html=1;" vertex="1" parent="b0TugOnntlRWFown4FGA-3">
          <mxGeometry y="900" width="280" height="30" as="geometry" />
        </mxCell>
        <mxCell id="b0TugOnntlRWFown4FGA-17" value="+ movePiece( move : MoveInfo&amp;amp; ) : void" style="text;strokeColor=none;fillColor=none;align=left;verticalAlign=middle;spacingLeft=4;spacingRight=4;overflow=hidden;points=[[0,0.5],[1,0.5]];portConstraint=eastwest;rotatable=0;whiteSpace=wrap;html=1;" vertex="1" parent="b0TugOnntlRWFown4FGA-3">
          <mxGeometry y="930" width="280" height="30" as="geometry" />
        </mxCell>
        <mxCell id="b0TugOnntlRWFown4FGA-189" value="+ undoAndNotify( move : MoveInfo&amp;amp; ) : void" style="text;strokeColor=none;fillColor=none;align=left;verticalAlign=middle;spacingLeft=4;spacingRight=4;overflow=hidden;points=[[0,0.5],[1,0.5]];portConstraint=eastwest;rotatable=0;whiteSpace=wrap;html=1;" vertex="1" parent="b0TugOnntlRWFown4FGA-3">
          <mxGeometry y="960" width="280" height="30" as="geometry" />
        </mxCell>
        <mxCell id="b0TugOnntlRWFown4FGA-18" value="+ addObserver( observer : BoardObserver* ) : void" style="text;strokeColor=none;fillColor=none;align=left;verticalAlign=middle;spacingLeft=4;spacingRight=4;overflow=hidden;points=[[0,0.5],[1,0.5]];portConstraint=eastwest;rotatable=0;whiteSpace=wrap;html=1;" vertex="1" parent="b0TugOnntlRWFown4FGA-3">
          <mxGeometry y="990" width="280" height="30" as="geometry" />
        </mxCell>
        <mxCell id="b0TugOnntlRWFown4FGA-190" value="+ removeObserver( observer : BoardObserver* ) : void" style="text;strokeColor=none;fillColor=none;align=left;verticalAlign=middle;spacingLeft=4;spacingRight=4;overflow=hidden;points=[[0,0.5],[1,0.5]];portConstraint=eastwest;rotatable=0;whiteSpace=wrap;html=1;" vertex="1" parent="b0TugOnntlRWFown4FGA-3">
          <mxGeometry y="1020" width="280" height="30" as="geometry" />
        </mxCell>
        <mxCell id="b0TugOnntlRWFown4FGA-19" value="+ pieceAtSquare( file : int, rank : int ) : Piece*" style="text;strokeColor=none;fillColor=none;align=left;verticalAlign=middle;spacingLeft=4;spacingRight=4;overflow=hidden;points=[[0,0.5],[1,0.5]];portConstraint=eastwest;rotatable=0;whiteSpace=wrap;html=1;" vertex="1" parent="b0TugOnntlRWFown4FGA-3">
          <mxGeometry y="1050" width="280" height="30" as="geometry" />
        </mxCell>
        <mxCell id="b0TugOnntlRWFown4FGA-191" value="+ pieceAtPosition( pos : Position&amp;amp; ) : Piece*" style="text;strokeColor=none;fillColor=none;align=left;verticalAlign=middle;spacingLeft=4;spacingRight=4;overflow=hidden;points=[[0,0.5],[1,0.5]];portConstraint=eastwest;rotatable=0;whiteSpace=wrap;html=1;" vertex="1" parent="b0TugOnntlRWFown4FGA-3">
          <mxGeometry y="1080" width="280" height="30" as="geometry" />
        </mxCell>
        <mxCell id="b0TugOnntlRWFown4FGA-20" value="+ updateAlgebraicNotation( move : MoveInfo&amp;amp;, boardAfterUpdate : Board* ) : void&amp;nbsp;" style="text;strokeColor=none;fillColor=none;align=left;verticalAlign=middle;spacingLeft=4;spacingRight=4;overflow=hidden;points=[[0,0.5],[1,0.5]];portConstraint=eastwest;rotatable=0;whiteSpace=wrap;html=1;" vertex="1" parent="b0TugOnntlRWFown4FGA-3">
          <mxGeometry y="1110" width="280" height="30" as="geometry" />
        </mxCell>
        <mxCell id="b0TugOnntlRWFown4FGA-21" value="+ moveInfo( oldPos : Position, newPos : Position, promotionType : PieceType ) : MoveInfo" style="text;strokeColor=none;fillColor=none;align=left;verticalAlign=middle;spacingLeft=4;spacingRight=4;overflow=hidden;points=[[0,0.5],[1,0.5]];portConstraint=eastwest;rotatable=0;whiteSpace=wrap;html=1;" vertex="1" parent="b0TugOnntlRWFown4FGA-3">
          <mxGeometry y="1140" width="280" height="30" as="geometry" />
        </mxCell>
        <mxCell id="b0TugOnntlRWFown4FGA-22" value="" style="edgeStyle=elbowEdgeStyle;elbow=horizontal;endArrow=diamondThin;html=1;curved=0;rounded=0;endSize=8;startSize=8;exitX=0;exitY=0.25;exitDx=0;exitDy=0;entryX=1;entryY=0.5;entryDx=0;entryDy=0;endFill=1;" edge="1" parent="1" source="b0TugOnntlRWFown4FGA-1" target="b0TugOnntlRWFown4FGA-27">
          <mxGeometry width="50" height="50" relative="1" as="geometry">
            <mxPoint x="2150" y="1380" as="sourcePoint" />
            <mxPoint x="2290" y="1340" as="targetPoint" />
            <Array as="points">
              <mxPoint x="2200" y="1310" />
            </Array>
          </mxGeometry>
        </mxCell>
        <mxCell id="b0TugOnntlRWFown4FGA-24" value="" style="group" connectable="0" vertex="1" parent="1">
          <mxGeometry x="1440" y="940" width="50" height="510" as="geometry" />
        </mxCell>
        <mxCell id="b0TugOnntlRWFown4FGA-25" value="&lt;i&gt;Piece&lt;/i&gt;" style="swimlane;fontStyle=0;childLayout=stackLayout;horizontal=1;startSize=30;horizontalStack=0;resizeParent=1;resizeParentMax=0;resizeLast=0;collapsible=1;marginBottom=0;whiteSpace=wrap;html=1;" vertex="1" parent="1">
          <mxGeometry x="1840" y="1200" width="280" height="240" as="geometry">
            <mxRectangle x="210" y="120" width="120" height="30" as="alternateBounds" />
          </mxGeometry>
        </mxCell>
        <mxCell id="b0TugOnntlRWFown4FGA-26" value="# pos : Position" style="text;strokeColor=none;fillColor=none;align=left;verticalAlign=middle;spacingLeft=4;spacingRight=4;overflow=hidden;points=[[0,0.5],[1,0.5]];portConstraint=eastwest;rotatable=0;whiteSpace=wrap;html=1;" vertex="1" parent="b0TugOnntlRWFown4FGA-25">
          <mxGeometry y="30" width="280" height="30" as="geometry" />
        </mxCell>
        <mxCell id="b0TugOnntlRWFown4FGA-27" value="# c : Colour" style="text;strokeColor=none;fillColor=none;align=left;verticalAlign=middle;spacingLeft=4;spacingRight=4;overflow=hidden;points=[[0,0.5],[1,0.5]];portConstraint=eastwest;rotatable=0;whiteSpace=wrap;html=1;" vertex="1" parent="b0TugOnntlRWFown4FGA-25">
          <mxGeometry y="60" width="280" height="30" as="geometry" />
        </mxCell>
        <mxCell id="b0TugOnntlRWFown4FGA-28" value="# b : *Board" style="text;strokeColor=none;fillColor=none;align=left;verticalAlign=middle;spacingLeft=4;spacingRight=4;overflow=hidden;points=[[0,0.5],[1,0.5]];portConstraint=eastwest;rotatable=0;whiteSpace=wrap;html=1;" vertex="1" parent="b0TugOnntlRWFown4FGA-25">
          <mxGeometry y="90" width="280" height="30" as="geometry" />
        </mxCell>
        <mxCell id="b0TugOnntlRWFown4FGA-296" value="" style="endArrow=none;html=1;rounded=0;exitX=0;exitY=0.5;exitDx=0;exitDy=0;entryX=1;entryY=0.5;entryDx=0;entryDy=0;" edge="1" parent="b0TugOnntlRWFown4FGA-25">
          <mxGeometry width="50" height="50" relative="1" as="geometry">
            <mxPoint y="119.71000000000004" as="sourcePoint" />
            <mxPoint x="280" y="119.71000000000004" as="targetPoint" />
          </mxGeometry>
        </mxCell>
        <mxCell id="b0TugOnntlRWFown4FGA-29" value="+ validMoves() : vector&amp;lt;Position&amp;gt;" style="text;strokeColor=none;fillColor=none;align=left;verticalAlign=middle;spacingLeft=4;spacingRight=4;overflow=hidden;points=[[0,0.5],[1,0.5]];portConstraint=eastwest;rotatable=0;whiteSpace=wrap;html=1;fontStyle=2" vertex="1" parent="b0TugOnntlRWFown4FGA-25">
          <mxGeometry y="120" width="280" height="30" as="geometry" />
        </mxCell>
        <mxCell id="b0TugOnntlRWFown4FGA-30" value="+ verifyMove( p : Position ) : void" style="text;strokeColor=none;fillColor=none;align=left;verticalAlign=middle;spacingLeft=4;spacingRight=4;overflow=hidden;points=[[0,0.5],[1,0.5]];portConstraint=eastwest;rotatable=0;whiteSpace=wrap;html=1;fontStyle=2" vertex="1" parent="b0TugOnntlRWFown4FGA-25">
          <mxGeometry y="150" width="280" height="30" as="geometry" />
        </mxCell>
        <mxCell id="b0TugOnntlRWFown4FGA-31" value="+ move( p : Position ) : void" style="text;strokeColor=none;fillColor=none;align=left;verticalAlign=middle;spacingLeft=4;spacingRight=4;overflow=hidden;points=[[0,0.5],[1,0.5]];portConstraint=eastwest;rotatable=0;whiteSpace=wrap;html=1;" vertex="1" parent="b0TugOnntlRWFown4FGA-25">
          <mxGeometry y="180" width="280" height="30" as="geometry" />
        </mxCell>
        <mxCell id="b0TugOnntlRWFown4FGA-34" value="&lt;i&gt;+ clone( board : Board* ) : Piece*&lt;/i&gt;" style="text;strokeColor=none;fillColor=none;align=left;verticalAlign=middle;spacingLeft=4;spacingRight=4;overflow=hidden;points=[[0,0.5],[1,0.5]];portConstraint=eastwest;rotatable=0;whiteSpace=wrap;html=1;" vertex="1" parent="b0TugOnntlRWFown4FGA-25">
          <mxGeometry y="210" width="280" height="30" as="geometry" />
        </mxCell>
        <mxCell id="b0TugOnntlRWFown4FGA-35" value="Rook" style="swimlane;fontStyle=0;childLayout=stackLayout;horizontal=1;startSize=30;horizontalStack=0;resizeParent=1;resizeParentMax=0;resizeLast=0;collapsible=1;marginBottom=0;whiteSpace=wrap;html=1;" vertex="1" parent="1">
          <mxGeometry x="1160" y="1800" width="240" height="210" as="geometry">
            <mxRectangle x="120" y="490" width="120" height="30" as="alternateBounds" />
          </mxGeometry>
        </mxCell>
        <mxCell id="b0TugOnntlRWFown4FGA-275" value="+ getType() : PieceType" style="text;strokeColor=none;fillColor=none;align=left;verticalAlign=middle;spacingLeft=4;spacingRight=4;overflow=hidden;points=[[0,0.5],[1,0.5]];portConstraint=eastwest;rotatable=0;whiteSpace=wrap;html=1;" vertex="1" parent="b0TugOnntlRWFown4FGA-35">
          <mxGeometry y="30" width="240" height="30" as="geometry" />
        </mxCell>
        <mxCell id="b0TugOnntlRWFown4FGA-280" value="- validMoveGivenDirection( p : Position, dr : int, df : int ) : bool" style="text;strokeColor=none;fillColor=none;align=left;verticalAlign=middle;spacingLeft=4;spacingRight=4;overflow=hidden;points=[[0,0.5],[1,0.5]];portConstraint=eastwest;rotatable=0;whiteSpace=wrap;html=1;" vertex="1" parent="b0TugOnntlRWFown4FGA-35">
          <mxGeometry y="60" width="240" height="30" as="geometry" />
        </mxCell>
        <mxCell id="b0TugOnntlRWFown4FGA-279" value="- appendMovesForDirection( dr : int, df : int, moves: vector&amp;lt;Position&amp;gt;&amp;amp; ) : void" style="text;strokeColor=none;fillColor=none;align=left;verticalAlign=middle;spacingLeft=4;spacingRight=4;overflow=hidden;points=[[0,0.5],[1,0.5]];portConstraint=eastwest;rotatable=0;whiteSpace=wrap;html=1;" vertex="1" parent="b0TugOnntlRWFown4FGA-35">
          <mxGeometry y="90" width="240" height="30" as="geometry" />
        </mxCell>
        <mxCell id="b0TugOnntlRWFown4FGA-278" value="+ validMoves() : vector&amp;lt;Position&amp;gt;" style="text;strokeColor=none;fillColor=none;align=left;verticalAlign=middle;spacingLeft=4;spacingRight=4;overflow=hidden;points=[[0,0.5],[1,0.5]];portConstraint=eastwest;rotatable=0;whiteSpace=wrap;html=1;" vertex="1" parent="b0TugOnntlRWFown4FGA-35">
          <mxGeometry y="120" width="240" height="30" as="geometry" />
        </mxCell>
        <mxCell id="b0TugOnntlRWFown4FGA-277" value="+ verifyMove( p : Position ) : bool" style="text;strokeColor=none;fillColor=none;align=left;verticalAlign=middle;spacingLeft=4;spacingRight=4;overflow=hidden;points=[[0,0.5],[1,0.5]];portConstraint=eastwest;rotatable=0;whiteSpace=wrap;html=1;" vertex="1" parent="b0TugOnntlRWFown4FGA-35">
          <mxGeometry y="150" width="240" height="30" as="geometry" />
        </mxCell>
        <mxCell id="b0TugOnntlRWFown4FGA-276" value="+ clone( board : Board* ) : Piece*" style="text;strokeColor=none;fillColor=none;align=left;verticalAlign=middle;spacingLeft=4;spacingRight=4;overflow=hidden;points=[[0,0.5],[1,0.5]];portConstraint=eastwest;rotatable=0;whiteSpace=wrap;html=1;" vertex="1" parent="b0TugOnntlRWFown4FGA-35">
          <mxGeometry y="180" width="240" height="30" as="geometry" />
        </mxCell>
        <mxCell id="b0TugOnntlRWFown4FGA-40" value="" style="edgeStyle=elbowEdgeStyle;elbow=vertical;endArrow=block;html=1;curved=0;rounded=0;endSize=8;startSize=8;exitX=0.5;exitY=0;exitDx=0;exitDy=0;endFill=0;" edge="1" parent="1" source="b0TugOnntlRWFown4FGA-35" target="b0TugOnntlRWFown4FGA-34">
          <mxGeometry width="50" height="50" relative="1" as="geometry">
            <mxPoint x="1730" y="1820" as="sourcePoint" />
            <mxPoint x="1990" y="1680" as="targetPoint" />
            <Array as="points">
              <mxPoint x="1640" y="1760" />
            </Array>
          </mxGeometry>
        </mxCell>
        <mxCell id="b0TugOnntlRWFown4FGA-41" value="Knight" style="swimlane;fontStyle=0;childLayout=stackLayout;horizontal=1;startSize=30;horizontalStack=0;resizeParent=1;resizeParentMax=0;resizeLast=0;collapsible=1;marginBottom=0;whiteSpace=wrap;html=1;" vertex="1" parent="1">
          <mxGeometry x="1440" y="1800" width="240" height="150" as="geometry">
            <mxRectangle x="400" y="490" width="120" height="30" as="alternateBounds" />
          </mxGeometry>
        </mxCell>
        <mxCell id="b0TugOnntlRWFown4FGA-241" value="+ validMoves() : vector&amp;lt;Position&amp;gt;" style="text;strokeColor=none;fillColor=none;align=left;verticalAlign=middle;spacingLeft=4;spacingRight=4;overflow=hidden;points=[[0,0.5],[1,0.5]];portConstraint=eastwest;rotatable=0;whiteSpace=wrap;html=1;" vertex="1" parent="b0TugOnntlRWFown4FGA-41">
          <mxGeometry y="30" width="240" height="30" as="geometry" />
        </mxCell>
        <mxCell id="b0TugOnntlRWFown4FGA-244" value="+ getType() : PieceType" style="text;strokeColor=none;fillColor=none;align=left;verticalAlign=middle;spacingLeft=4;spacingRight=4;overflow=hidden;points=[[0,0.5],[1,0.5]];portConstraint=eastwest;rotatable=0;whiteSpace=wrap;html=1;" vertex="1" parent="b0TugOnntlRWFown4FGA-41">
          <mxGeometry y="60" width="240" height="30" as="geometry" />
        </mxCell>
        <mxCell id="b0TugOnntlRWFown4FGA-243" value="+ clone( board : Board* ) : Piece*" style="text;strokeColor=none;fillColor=none;align=left;verticalAlign=middle;spacingLeft=4;spacingRight=4;overflow=hidden;points=[[0,0.5],[1,0.5]];portConstraint=eastwest;rotatable=0;whiteSpace=wrap;html=1;" vertex="1" parent="b0TugOnntlRWFown4FGA-41">
          <mxGeometry y="90" width="240" height="30" as="geometry" />
        </mxCell>
        <mxCell id="b0TugOnntlRWFown4FGA-242" value="+ verifyMove( p : Position ) : bool" style="text;strokeColor=none;fillColor=none;align=left;verticalAlign=middle;spacingLeft=4;spacingRight=4;overflow=hidden;points=[[0,0.5],[1,0.5]];portConstraint=eastwest;rotatable=0;whiteSpace=wrap;html=1;" vertex="1" parent="b0TugOnntlRWFown4FGA-41">
          <mxGeometry y="120" width="240" height="30" as="geometry" />
        </mxCell>
        <mxCell id="b0TugOnntlRWFown4FGA-46" value="" style="edgeStyle=elbowEdgeStyle;elbow=vertical;endArrow=block;html=1;curved=0;rounded=0;endSize=8;startSize=8;endFill=0;" edge="1" parent="1" source="b0TugOnntlRWFown4FGA-41" target="b0TugOnntlRWFown4FGA-34">
          <mxGeometry width="50" height="50" relative="1" as="geometry">
            <mxPoint x="2030" y="1820" as="sourcePoint" />
            <mxPoint x="2000" y="1680" as="targetPoint" />
            <Array as="points">
              <mxPoint x="1780" y="1760" />
            </Array>
          </mxGeometry>
        </mxCell>
        <mxCell id="b0TugOnntlRWFown4FGA-47" value="Bishop" style="swimlane;fontStyle=0;childLayout=stackLayout;horizontal=1;startSize=30;horizontalStack=0;resizeParent=1;resizeParentMax=0;resizeLast=0;collapsible=1;marginBottom=0;whiteSpace=wrap;html=1;" vertex="1" parent="1">
          <mxGeometry x="1720" y="1800" width="240" height="210" as="geometry">
            <mxRectangle x="680" y="490" width="120" height="30" as="alternateBounds" />
          </mxGeometry>
        </mxCell>
        <mxCell id="b0TugOnntlRWFown4FGA-50" value="+ getType() : PieceType" style="text;strokeColor=none;fillColor=none;align=left;verticalAlign=middle;spacingLeft=4;spacingRight=4;overflow=hidden;points=[[0,0.5],[1,0.5]];portConstraint=eastwest;rotatable=0;whiteSpace=wrap;html=1;" vertex="1" parent="b0TugOnntlRWFown4FGA-47">
          <mxGeometry y="30" width="240" height="30" as="geometry" />
        </mxCell>
        <mxCell id="b0TugOnntlRWFown4FGA-162" value="+ clone( board : Board* ) : Piece*" style="text;strokeColor=none;fillColor=none;align=left;verticalAlign=middle;spacingLeft=4;spacingRight=4;overflow=hidden;points=[[0,0.5],[1,0.5]];portConstraint=eastwest;rotatable=0;whiteSpace=wrap;html=1;" vertex="1" parent="b0TugOnntlRWFown4FGA-47">
          <mxGeometry y="60" width="240" height="30" as="geometry" />
        </mxCell>
        <mxCell id="b0TugOnntlRWFown4FGA-49" value="+ verifyMove( p : Position ) : bool" style="text;strokeColor=none;fillColor=none;align=left;verticalAlign=middle;spacingLeft=4;spacingRight=4;overflow=hidden;points=[[0,0.5],[1,0.5]];portConstraint=eastwest;rotatable=0;whiteSpace=wrap;html=1;" vertex="1" parent="b0TugOnntlRWFown4FGA-47">
          <mxGeometry y="90" width="240" height="30" as="geometry" />
        </mxCell>
        <mxCell id="b0TugOnntlRWFown4FGA-48" value="+ validMoves() : vector&amp;lt;Position&amp;gt;" style="text;strokeColor=none;fillColor=none;align=left;verticalAlign=middle;spacingLeft=4;spacingRight=4;overflow=hidden;points=[[0,0.5],[1,0.5]];portConstraint=eastwest;rotatable=0;whiteSpace=wrap;html=1;" vertex="1" parent="b0TugOnntlRWFown4FGA-47">
          <mxGeometry y="120" width="240" height="30" as="geometry" />
        </mxCell>
        <mxCell id="b0TugOnntlRWFown4FGA-51" value="- appendMovesForDirection( dr : int, df : int, moves: vector&amp;lt;Position&amp;gt;&amp;amp; ) : void" style="text;strokeColor=none;fillColor=none;align=left;verticalAlign=middle;spacingLeft=4;spacingRight=4;overflow=hidden;points=[[0,0.5],[1,0.5]];portConstraint=eastwest;rotatable=0;whiteSpace=wrap;html=1;" vertex="1" parent="b0TugOnntlRWFown4FGA-47">
          <mxGeometry y="150" width="240" height="30" as="geometry" />
        </mxCell>
        <mxCell id="b0TugOnntlRWFown4FGA-163" value="- validMoveGivenDirection( p : Position, dr : int, df : int ) : bool" style="text;strokeColor=none;fillColor=none;align=left;verticalAlign=middle;spacingLeft=4;spacingRight=4;overflow=hidden;points=[[0,0.5],[1,0.5]];portConstraint=eastwest;rotatable=0;whiteSpace=wrap;html=1;" vertex="1" parent="b0TugOnntlRWFown4FGA-47">
          <mxGeometry y="180" width="240" height="30" as="geometry" />
        </mxCell>
        <mxCell id="b0TugOnntlRWFown4FGA-52" value="" style="edgeStyle=elbowEdgeStyle;elbow=vertical;endArrow=block;html=1;rounded=0;endSize=8;startSize=8;endFill=0;exitX=0.5;exitY=0;exitDx=0;exitDy=0;" edge="1" parent="1" source="b0TugOnntlRWFown4FGA-47" target="b0TugOnntlRWFown4FGA-25">
          <mxGeometry width="50" height="50" relative="1" as="geometry">
            <mxPoint x="1850" y="1800" as="sourcePoint" />
            <mxPoint x="1990" y="1680" as="targetPoint" />
            <Array as="points">
              <mxPoint x="1980" y="1760" />
            </Array>
          </mxGeometry>
        </mxCell>
        <mxCell id="b0TugOnntlRWFown4FGA-53" value="King" style="swimlane;fontStyle=0;childLayout=stackLayout;horizontal=1;startSize=30;horizontalStack=0;resizeParent=1;resizeParentMax=0;resizeLast=0;collapsible=1;marginBottom=0;whiteSpace=wrap;html=1;" vertex="1" parent="1">
          <mxGeometry x="2000" y="1800" width="240" height="150" as="geometry">
            <mxRectangle x="210" y="120" width="120" height="30" as="alternateBounds" />
          </mxGeometry>
        </mxCell>
        <mxCell id="b0TugOnntlRWFown4FGA-240" value="+ validMoves() : vector&amp;lt;Position&amp;gt;" style="text;strokeColor=none;fillColor=none;align=left;verticalAlign=middle;spacingLeft=4;spacingRight=4;overflow=hidden;points=[[0,0.5],[1,0.5]];portConstraint=eastwest;rotatable=0;whiteSpace=wrap;html=1;" vertex="1" parent="b0TugOnntlRWFown4FGA-53">
          <mxGeometry y="30" width="240" height="30" as="geometry" />
        </mxCell>
        <mxCell id="b0TugOnntlRWFown4FGA-239" value="+ verifyMove( p : Position ) : bool" style="text;strokeColor=none;fillColor=none;align=left;verticalAlign=middle;spacingLeft=4;spacingRight=4;overflow=hidden;points=[[0,0.5],[1,0.5]];portConstraint=eastwest;rotatable=0;whiteSpace=wrap;html=1;" vertex="1" parent="b0TugOnntlRWFown4FGA-53">
          <mxGeometry y="60" width="240" height="30" as="geometry" />
        </mxCell>
        <mxCell id="b0TugOnntlRWFown4FGA-238" value="+ clone( board : Board* ) : Piece*" style="text;strokeColor=none;fillColor=none;align=left;verticalAlign=middle;spacingLeft=4;spacingRight=4;overflow=hidden;points=[[0,0.5],[1,0.5]];portConstraint=eastwest;rotatable=0;whiteSpace=wrap;html=1;" vertex="1" parent="b0TugOnntlRWFown4FGA-53">
          <mxGeometry y="90" width="240" height="30" as="geometry" />
        </mxCell>
        <mxCell id="b0TugOnntlRWFown4FGA-237" value="+ getType() : PieceType" style="text;strokeColor=none;fillColor=none;align=left;verticalAlign=middle;spacingLeft=4;spacingRight=4;overflow=hidden;points=[[0,0.5],[1,0.5]];portConstraint=eastwest;rotatable=0;whiteSpace=wrap;html=1;" vertex="1" parent="b0TugOnntlRWFown4FGA-53">
          <mxGeometry y="120" width="240" height="30" as="geometry" />
        </mxCell>
        <mxCell id="b0TugOnntlRWFown4FGA-58" value="Queen" style="swimlane;fontStyle=0;childLayout=stackLayout;horizontal=1;startSize=30;horizontalStack=0;resizeParent=1;resizeParentMax=0;resizeLast=0;collapsible=1;marginBottom=0;whiteSpace=wrap;html=1;" vertex="1" parent="1">
          <mxGeometry x="2280" y="1800" width="240" height="210" as="geometry">
            <mxRectangle x="210" y="120" width="120" height="30" as="alternateBounds" />
          </mxGeometry>
        </mxCell>
        <mxCell id="b0TugOnntlRWFown4FGA-281" value="+ getType() : PieceType" style="text;strokeColor=none;fillColor=none;align=left;verticalAlign=middle;spacingLeft=4;spacingRight=4;overflow=hidden;points=[[0,0.5],[1,0.5]];portConstraint=eastwest;rotatable=0;whiteSpace=wrap;html=1;" vertex="1" parent="b0TugOnntlRWFown4FGA-58">
          <mxGeometry y="30" width="240" height="30" as="geometry" />
        </mxCell>
        <mxCell id="b0TugOnntlRWFown4FGA-286" value="- validMoveGivenDirection( p : Position, dr : int, df : int ) : bool" style="text;strokeColor=none;fillColor=none;align=left;verticalAlign=middle;spacingLeft=4;spacingRight=4;overflow=hidden;points=[[0,0.5],[1,0.5]];portConstraint=eastwest;rotatable=0;whiteSpace=wrap;html=1;" vertex="1" parent="b0TugOnntlRWFown4FGA-58">
          <mxGeometry y="60" width="240" height="30" as="geometry" />
        </mxCell>
        <mxCell id="b0TugOnntlRWFown4FGA-285" value="- appendMovesForDirection( dr : int, df : int, moves: vector&amp;lt;Position&amp;gt;&amp;amp; ) : void" style="text;strokeColor=none;fillColor=none;align=left;verticalAlign=middle;spacingLeft=4;spacingRight=4;overflow=hidden;points=[[0,0.5],[1,0.5]];portConstraint=eastwest;rotatable=0;whiteSpace=wrap;html=1;" vertex="1" parent="b0TugOnntlRWFown4FGA-58">
          <mxGeometry y="90" width="240" height="30" as="geometry" />
        </mxCell>
        <mxCell id="b0TugOnntlRWFown4FGA-284" value="+ validMoves() : vector&amp;lt;Position&amp;gt;" style="text;strokeColor=none;fillColor=none;align=left;verticalAlign=middle;spacingLeft=4;spacingRight=4;overflow=hidden;points=[[0,0.5],[1,0.5]];portConstraint=eastwest;rotatable=0;whiteSpace=wrap;html=1;" vertex="1" parent="b0TugOnntlRWFown4FGA-58">
          <mxGeometry y="120" width="240" height="30" as="geometry" />
        </mxCell>
        <mxCell id="b0TugOnntlRWFown4FGA-283" value="+ verifyMove( p : Position ) : bool" style="text;strokeColor=none;fillColor=none;align=left;verticalAlign=middle;spacingLeft=4;spacingRight=4;overflow=hidden;points=[[0,0.5],[1,0.5]];portConstraint=eastwest;rotatable=0;whiteSpace=wrap;html=1;" vertex="1" parent="b0TugOnntlRWFown4FGA-58">
          <mxGeometry y="150" width="240" height="30" as="geometry" />
        </mxCell>
        <mxCell id="b0TugOnntlRWFown4FGA-282" value="+ clone( board : Board* ) : Piece*" style="text;strokeColor=none;fillColor=none;align=left;verticalAlign=middle;spacingLeft=4;spacingRight=4;overflow=hidden;points=[[0,0.5],[1,0.5]];portConstraint=eastwest;rotatable=0;whiteSpace=wrap;html=1;" vertex="1" parent="b0TugOnntlRWFown4FGA-58">
          <mxGeometry y="180" width="240" height="30" as="geometry" />
        </mxCell>
        <mxCell id="b0TugOnntlRWFown4FGA-63" value="Pawn" style="swimlane;fontStyle=0;childLayout=stackLayout;horizontal=1;startSize=30;horizontalStack=0;resizeParent=1;resizeParentMax=0;resizeLast=0;collapsible=1;marginBottom=0;whiteSpace=wrap;html=1;" vertex="1" parent="1">
          <mxGeometry x="2560" y="1800" width="240" height="150" as="geometry">
            <mxRectangle x="210" y="120" width="120" height="30" as="alternateBounds" />
          </mxGeometry>
        </mxCell>
        <mxCell id="b0TugOnntlRWFown4FGA-248" value="+ getType() : PieceType" style="text;strokeColor=none;fillColor=none;align=left;verticalAlign=middle;spacingLeft=4;spacingRight=4;overflow=hidden;points=[[0,0.5],[1,0.5]];portConstraint=eastwest;rotatable=0;whiteSpace=wrap;html=1;" vertex="1" parent="b0TugOnntlRWFown4FGA-63">
          <mxGeometry y="30" width="240" height="30" as="geometry" />
        </mxCell>
        <mxCell id="b0TugOnntlRWFown4FGA-247" value="+ clone( board : Board* ) : Piece*" style="text;strokeColor=none;fillColor=none;align=left;verticalAlign=middle;spacingLeft=4;spacingRight=4;overflow=hidden;points=[[0,0.5],[1,0.5]];portConstraint=eastwest;rotatable=0;whiteSpace=wrap;html=1;" vertex="1" parent="b0TugOnntlRWFown4FGA-63">
          <mxGeometry y="60" width="240" height="30" as="geometry" />
        </mxCell>
        <mxCell id="b0TugOnntlRWFown4FGA-246" value="+ verifyMove( p : Position ) : bool" style="text;strokeColor=none;fillColor=none;align=left;verticalAlign=middle;spacingLeft=4;spacingRight=4;overflow=hidden;points=[[0,0.5],[1,0.5]];portConstraint=eastwest;rotatable=0;whiteSpace=wrap;html=1;" vertex="1" parent="b0TugOnntlRWFown4FGA-63">
          <mxGeometry y="90" width="240" height="30" as="geometry" />
        </mxCell>
        <mxCell id="b0TugOnntlRWFown4FGA-245" value="+ validMoves() : vector&amp;lt;Position&amp;gt;" style="text;strokeColor=none;fillColor=none;align=left;verticalAlign=middle;spacingLeft=4;spacingRight=4;overflow=hidden;points=[[0,0.5],[1,0.5]];portConstraint=eastwest;rotatable=0;whiteSpace=wrap;html=1;" vertex="1" parent="b0TugOnntlRWFown4FGA-63">
          <mxGeometry y="120" width="240" height="30" as="geometry" />
        </mxCell>
        <mxCell id="b0TugOnntlRWFown4FGA-68" value="" style="edgeStyle=elbowEdgeStyle;elbow=vertical;endArrow=block;html=1;curved=0;rounded=0;endSize=8;startSize=8;endFill=0;exitX=0.5;exitY=0;exitDx=0;exitDy=0;" edge="1" parent="1" source="b0TugOnntlRWFown4FGA-63" target="b0TugOnntlRWFown4FGA-34">
          <mxGeometry width="50" height="50" relative="1" as="geometry">
            <mxPoint x="2710" y="1790" as="sourcePoint" />
            <mxPoint x="2000" y="1680" as="targetPoint" />
            <Array as="points">
              <mxPoint x="2340" y="1760" />
            </Array>
          </mxGeometry>
        </mxCell>
        <mxCell id="b0TugOnntlRWFown4FGA-69" value="" style="edgeStyle=elbowEdgeStyle;elbow=vertical;endArrow=block;html=1;curved=0;rounded=0;endSize=8;startSize=8;endFill=0;exitX=0.5;exitY=0;exitDx=0;exitDy=0;" edge="1" parent="1" source="b0TugOnntlRWFown4FGA-58" target="b0TugOnntlRWFown4FGA-25">
          <mxGeometry width="50" height="50" relative="1" as="geometry">
            <mxPoint x="1460" y="2040" as="sourcePoint" />
            <mxPoint x="1460" y="1900" as="targetPoint" />
            <Array as="points">
              <mxPoint x="2220" y="1760" />
            </Array>
          </mxGeometry>
        </mxCell>
        <mxCell id="b0TugOnntlRWFown4FGA-70" value="" style="edgeStyle=elbowEdgeStyle;elbow=vertical;endArrow=block;html=1;curved=0;rounded=0;endSize=8;startSize=8;exitX=0.5;exitY=0;exitDx=0;exitDy=0;endFill=0;" edge="1" parent="1" source="b0TugOnntlRWFown4FGA-53" target="b0TugOnntlRWFown4FGA-25">
          <mxGeometry width="50" height="50" relative="1" as="geometry">
            <mxPoint x="1180" y="2040" as="sourcePoint" />
            <mxPoint x="1980" y="1440" as="targetPoint" />
            <Array as="points">
              <mxPoint x="1980" y="1760" />
            </Array>
          </mxGeometry>
        </mxCell>
        <mxCell id="b0TugOnntlRWFown4FGA-71" value="enum PieceType" style="swimlane;fontStyle=0;childLayout=stackLayout;horizontal=1;startSize=30;horizontalStack=0;resizeParent=1;resizeParentMax=0;resizeLast=0;collapsible=1;marginBottom=0;whiteSpace=wrap;html=1;" vertex="1" parent="1">
          <mxGeometry x="1480" y="1530" width="140" height="80" as="geometry" />
        </mxCell>
        <mxCell id="b0TugOnntlRWFown4FGA-72" value="{King, Queen, Rook, Bishop, Knight, Pawn, None}" style="text;strokeColor=none;fillColor=none;align=left;verticalAlign=middle;spacingLeft=4;spacingRight=4;overflow=hidden;points=[[0,0.5],[1,0.5]];portConstraint=eastwest;rotatable=0;whiteSpace=wrap;html=1;" vertex="1" parent="b0TugOnntlRWFown4FGA-71">
          <mxGeometry y="30" width="140" height="50" as="geometry" />
        </mxCell>
        <mxCell id="b0TugOnntlRWFown4FGA-74" value="&lt;blockquote&gt;&lt;i&gt;AbstractUI&lt;/i&gt;&lt;/blockquote&gt;" style="swimlane;fontStyle=0;childLayout=stackLayout;horizontal=1;startSize=26;fillColor=none;horizontalStack=0;resizeParent=1;resizeParentMax=0;resizeLast=0;collapsible=1;marginBottom=0;whiteSpace=wrap;html=1;" vertex="1" parent="1">
          <mxGeometry x="320" y="200" width="280" height="182" as="geometry" />
        </mxCell>
        <mxCell id="b0TugOnntlRWFown4FGA-75" value="&lt;div&gt;# board : Board*&lt;/div&gt;" style="text;strokeColor=none;fillColor=none;align=left;verticalAlign=top;spacingLeft=4;spacingRight=4;overflow=hidden;rotatable=0;points=[[0,0.5],[1,0.5]];portConstraint=eastwest;whiteSpace=wrap;html=1;" vertex="1" parent="b0TugOnntlRWFown4FGA-74">
          <mxGeometry y="26" width="280" height="26" as="geometry" />
        </mxCell>
        <mxCell id="b0TugOnntlRWFown4FGA-153" value="&lt;div&gt;# gameData : GameData*&lt;/div&gt;" style="text;strokeColor=none;fillColor=none;align=left;verticalAlign=top;spacingLeft=4;spacingRight=4;overflow=hidden;rotatable=0;points=[[0,0.5],[1,0.5]];portConstraint=eastwest;whiteSpace=wrap;html=1;" vertex="1" parent="b0TugOnntlRWFown4FGA-74">
          <mxGeometry y="52" width="280" height="26" as="geometry" />
        </mxCell>
        <mxCell id="b0TugOnntlRWFown4FGA-292" value="" style="endArrow=none;html=1;rounded=0;exitX=0;exitY=0.5;exitDx=0;exitDy=0;entryX=1;entryY=0.5;entryDx=0;entryDy=0;" edge="1" parent="b0TugOnntlRWFown4FGA-74">
          <mxGeometry width="50" height="50" relative="1" as="geometry">
            <mxPoint y="78" as="sourcePoint" />
            <mxPoint x="280" y="78" as="targetPoint" />
          </mxGeometry>
        </mxCell>
        <mxCell id="b0TugOnntlRWFown4FGA-76" value="&lt;i&gt;+ moveUpdate( latest : MoveInfo ) : void&lt;/i&gt;" style="text;strokeColor=none;fillColor=none;align=left;verticalAlign=top;spacingLeft=4;spacingRight=4;overflow=hidden;rotatable=0;points=[[0,0.5],[1,0.5]];portConstraint=eastwest;whiteSpace=wrap;html=1;" vertex="1" parent="b0TugOnntlRWFown4FGA-74">
          <mxGeometry y="78" width="280" height="26" as="geometry" />
        </mxCell>
        <mxCell id="b0TugOnntlRWFown4FGA-154" value="&lt;i&gt;+ undoUpdate( latest : MoveInfo ) : void&lt;/i&gt;" style="text;strokeColor=none;fillColor=none;align=left;verticalAlign=top;spacingLeft=4;spacingRight=4;overflow=hidden;rotatable=0;points=[[0,0.5],[1,0.5]];portConstraint=eastwest;whiteSpace=wrap;html=1;" vertex="1" parent="b0TugOnntlRWFown4FGA-74">
          <mxGeometry y="104" width="280" height="26" as="geometry" />
        </mxCell>
        <mxCell id="b0TugOnntlRWFown4FGA-155" value="&lt;i&gt;+ setupUpdate( latest : MoveInfo ) : void&lt;/i&gt;" style="text;strokeColor=none;fillColor=none;align=left;verticalAlign=top;spacingLeft=4;spacingRight=4;overflow=hidden;rotatable=0;points=[[0,0.5],[1,0.5]];portConstraint=eastwest;whiteSpace=wrap;html=1;" vertex="1" parent="b0TugOnntlRWFown4FGA-74">
          <mxGeometry y="130" width="280" height="26" as="geometry" />
        </mxCell>
        <mxCell id="b0TugOnntlRWFown4FGA-156" value="&lt;i&gt;+ output() : void&lt;/i&gt;" style="text;strokeColor=none;fillColor=none;align=left;verticalAlign=top;spacingLeft=4;spacingRight=4;overflow=hidden;rotatable=0;points=[[0,0.5],[1,0.5]];portConstraint=eastwest;whiteSpace=wrap;html=1;" vertex="1" parent="b0TugOnntlRWFown4FGA-74">
          <mxGeometry y="156" width="280" height="26" as="geometry" />
        </mxCell>
        <mxCell id="b0TugOnntlRWFown4FGA-77" value="&lt;i&gt;BoardObserver&lt;/i&gt;" style="swimlane;fontStyle=0;childLayout=stackLayout;horizontal=1;startSize=26;fillColor=none;horizontalStack=0;resizeParent=1;resizeParentMax=0;resizeLast=0;collapsible=1;marginBottom=0;whiteSpace=wrap;html=1;" vertex="1" parent="1">
          <mxGeometry x="800" y="40" width="280" height="104" as="geometry" />
        </mxCell>
        <mxCell id="b0TugOnntlRWFown4FGA-194" value="&lt;i&gt;+ setupUpdate( latest : MoveInfo ) : void&lt;/i&gt;" style="text;strokeColor=none;fillColor=none;align=left;verticalAlign=top;spacingLeft=4;spacingRight=4;overflow=hidden;rotatable=0;points=[[0,0.5],[1,0.5]];portConstraint=eastwest;whiteSpace=wrap;html=1;" vertex="1" parent="b0TugOnntlRWFown4FGA-77">
          <mxGeometry y="26" width="280" height="26" as="geometry" />
        </mxCell>
        <mxCell id="b0TugOnntlRWFown4FGA-193" value="&lt;i&gt;+ undoUpdate( latest : MoveInfo ) : void&lt;/i&gt;" style="text;strokeColor=none;fillColor=none;align=left;verticalAlign=top;spacingLeft=4;spacingRight=4;overflow=hidden;rotatable=0;points=[[0,0.5],[1,0.5]];portConstraint=eastwest;whiteSpace=wrap;html=1;" vertex="1" parent="b0TugOnntlRWFown4FGA-77">
          <mxGeometry y="52" width="280" height="26" as="geometry" />
        </mxCell>
        <mxCell id="b0TugOnntlRWFown4FGA-192" value="&lt;i&gt;+ moveUpdate( latest : MoveInfo ) : void&lt;/i&gt;" style="text;strokeColor=none;fillColor=none;align=left;verticalAlign=top;spacingLeft=4;spacingRight=4;overflow=hidden;rotatable=0;points=[[0,0.5],[1,0.5]];portConstraint=eastwest;whiteSpace=wrap;html=1;" vertex="1" parent="b0TugOnntlRWFown4FGA-77">
          <mxGeometry y="78" width="280" height="26" as="geometry" />
        </mxCell>
        <mxCell id="b0TugOnntlRWFown4FGA-79" value="" style="edgeStyle=segmentEdgeStyle;endArrow=diamondThin;html=1;curved=0;rounded=0;endSize=8;startSize=8;endFill=0;exitX=0;exitY=0;exitDx=0;exitDy=0;entryX=1;entryY=0.5;entryDx=0;entryDy=0;" edge="1" parent="1" source="b0TugOnntlRWFown4FGA-3" target="b0TugOnntlRWFown4FGA-75">
          <mxGeometry width="50" height="50" relative="1" as="geometry">
            <mxPoint x="870" y="750" as="sourcePoint" />
            <mxPoint x="870" y="410" as="targetPoint" />
            <Array as="points">
              <mxPoint x="1160" y="460" />
              <mxPoint x="920" y="460" />
              <mxPoint x="920" y="239" />
            </Array>
          </mxGeometry>
        </mxCell>
        <mxCell id="b0TugOnntlRWFown4FGA-80" value="" style="edgeStyle=elbowEdgeStyle;elbow=vertical;endArrow=block;html=1;curved=0;rounded=0;endSize=8;startSize=8;exitX=0.5;exitY=0;exitDx=0;exitDy=0;endFill=0;" edge="1" parent="1" source="b0TugOnntlRWFown4FGA-74" target="b0TugOnntlRWFown4FGA-77">
          <mxGeometry width="50" height="50" relative="1" as="geometry">
            <mxPoint x="1795" y="370" as="sourcePoint" />
            <mxPoint x="940" y="170" as="targetPoint" />
          </mxGeometry>
        </mxCell>
        <mxCell id="b0TugOnntlRWFown4FGA-81" value="Struct Position" style="swimlane;fontStyle=0;childLayout=stackLayout;horizontal=1;startSize=30;horizontalStack=0;resizeParent=1;resizeParentMax=0;resizeLast=0;collapsible=1;marginBottom=0;whiteSpace=wrap;html=1;" vertex="1" parent="1">
          <mxGeometry x="2280" y="1200" width="270" height="90" as="geometry">
            <mxRectangle x="210" y="120" width="120" height="30" as="alternateBounds" />
          </mxGeometry>
        </mxCell>
        <mxCell id="b0TugOnntlRWFown4FGA-82" value="+ rank, file : int" style="text;strokeColor=none;fillColor=none;align=left;verticalAlign=middle;spacingLeft=4;spacingRight=4;overflow=hidden;points=[[0,0.5],[1,0.5]];portConstraint=eastwest;rotatable=0;whiteSpace=wrap;html=1;" vertex="1" parent="b0TugOnntlRWFown4FGA-81">
          <mxGeometry y="30" width="270" height="30" as="geometry" />
        </mxCell>
        <mxCell id="b0TugOnntlRWFown4FGA-83" value="+ inBounds( size : int ) : bool" style="text;strokeColor=none;fillColor=none;align=left;verticalAlign=middle;spacingLeft=4;spacingRight=4;overflow=hidden;points=[[0,0.5],[1,0.5]];portConstraint=eastwest;rotatable=0;whiteSpace=wrap;html=1;" vertex="1" parent="b0TugOnntlRWFown4FGA-81">
          <mxGeometry y="60" width="270" height="30" as="geometry" />
        </mxCell>
        <mxCell id="b0TugOnntlRWFown4FGA-84" value="" style="edgeStyle=segmentEdgeStyle;endArrow=diamondThin;html=1;curved=0;rounded=0;endSize=8;startSize=8;exitX=0;exitY=0.25;exitDx=0;exitDy=0;entryX=1;entryY=0.5;entryDx=0;entryDy=0;endFill=1;" edge="1" parent="1" source="b0TugOnntlRWFown4FGA-81" target="b0TugOnntlRWFown4FGA-26">
          <mxGeometry width="50" height="50" relative="1" as="geometry">
            <mxPoint x="2240" y="1310" as="sourcePoint" />
            <mxPoint x="2170" y="1450" as="targetPoint" />
            <Array as="points">
              <mxPoint x="2280" y="1245" />
            </Array>
          </mxGeometry>
        </mxCell>
        <mxCell id="b0TugOnntlRWFown4FGA-85" value="GameData" style="swimlane;fontStyle=0;childLayout=stackLayout;horizontal=1;startSize=26;fillColor=none;horizontalStack=0;resizeParent=1;resizeParentMax=0;resizeLast=0;collapsible=1;marginBottom=0;whiteSpace=wrap;html=1;" vertex="1" parent="1">
          <mxGeometry x="1160" y="200" width="280" height="220" as="geometry" />
        </mxCell>
        <mxCell id="b0TugOnntlRWFown4FGA-221" value="- DEFAULT_HISTORY_SIZE : int" style="text;strokeColor=none;fillColor=none;align=left;verticalAlign=top;spacingLeft=4;spacingRight=4;overflow=hidden;rotatable=0;points=[[0,0.5],[1,0.5]];portConstraint=eastwest;whiteSpace=wrap;html=1;" vertex="1" parent="b0TugOnntlRWFown4FGA-85">
          <mxGeometry y="26" width="280" height="26" as="geometry" />
        </mxCell>
        <mxCell id="b0TugOnntlRWFown4FGA-86" value="- history : vector&amp;lt;MoveInfo&amp;gt;" style="text;strokeColor=none;fillColor=none;align=left;verticalAlign=top;spacingLeft=4;spacingRight=4;overflow=hidden;rotatable=0;points=[[0,0.5],[1,0.5]];portConstraint=eastwest;whiteSpace=wrap;html=1;" vertex="1" parent="b0TugOnntlRWFown4FGA-85">
          <mxGeometry y="52" width="280" height="26" as="geometry" />
        </mxCell>
        <mxCell id="b0TugOnntlRWFown4FGA-295" value="" style="endArrow=none;html=1;rounded=0;exitX=0;exitY=0.5;exitDx=0;exitDy=0;entryX=1;entryY=0.5;entryDx=0;entryDy=0;" edge="1" parent="b0TugOnntlRWFown4FGA-85">
          <mxGeometry width="50" height="50" relative="1" as="geometry">
            <mxPoint y="78" as="sourcePoint" />
            <mxPoint x="280" y="78" as="targetPoint" />
          </mxGeometry>
        </mxCell>
        <mxCell id="b0TugOnntlRWFown4FGA-222" value="&lt;span&gt;+ moveUpdate( latest : MoveInfo ) : void&lt;/span&gt;" style="text;strokeColor=none;fillColor=none;align=left;verticalAlign=top;spacingLeft=4;spacingRight=4;overflow=hidden;rotatable=0;points=[[0,0.5],[1,0.5]];portConstraint=eastwest;whiteSpace=wrap;html=1;fontStyle=0" vertex="1" parent="b0TugOnntlRWFown4FGA-85">
          <mxGeometry y="78" width="280" height="26" as="geometry" />
        </mxCell>
        <mxCell id="b0TugOnntlRWFown4FGA-224" value="&lt;span&gt;+ setupUpdate( latest : MoveInfo ) : void&lt;/span&gt;" style="text;strokeColor=none;fillColor=none;align=left;verticalAlign=top;spacingLeft=4;spacingRight=4;overflow=hidden;rotatable=0;points=[[0,0.5],[1,0.5]];portConstraint=eastwest;whiteSpace=wrap;html=1;fontStyle=0" vertex="1" parent="b0TugOnntlRWFown4FGA-85">
          <mxGeometry y="104" width="280" height="26" as="geometry" />
        </mxCell>
        <mxCell id="b0TugOnntlRWFown4FGA-223" value="&lt;span&gt;+ undoUpdate( latest : MoveInfo ) : void&lt;/span&gt;" style="text;strokeColor=none;fillColor=none;align=left;verticalAlign=top;spacingLeft=4;spacingRight=4;overflow=hidden;rotatable=0;points=[[0,0.5],[1,0.5]];portConstraint=eastwest;whiteSpace=wrap;html=1;fontStyle=0" vertex="1" parent="b0TugOnntlRWFown4FGA-85">
          <mxGeometry y="130" width="280" height="26" as="geometry" />
        </mxCell>
        <mxCell id="b0TugOnntlRWFown4FGA-88" value="+ latestMoves( n : int ) : vector&amp;lt;MoveInfo&amp;gt;" style="text;strokeColor=none;fillColor=none;align=left;verticalAlign=top;spacingLeft=4;spacingRight=4;overflow=hidden;rotatable=0;points=[[0,0.5],[1,0.5]];portConstraint=eastwest;whiteSpace=wrap;html=1;" vertex="1" parent="b0TugOnntlRWFown4FGA-85">
          <mxGeometry y="156" width="280" height="32" as="geometry" />
        </mxCell>
        <mxCell id="b0TugOnntlRWFown4FGA-225" value="+ gameLength() : int" style="text;strokeColor=none;fillColor=none;align=left;verticalAlign=top;spacingLeft=4;spacingRight=4;overflow=hidden;rotatable=0;points=[[0,0.5],[1,0.5]];portConstraint=eastwest;whiteSpace=wrap;html=1;" vertex="1" parent="b0TugOnntlRWFown4FGA-85">
          <mxGeometry y="188" width="280" height="32" as="geometry" />
        </mxCell>
        <mxCell id="b0TugOnntlRWFown4FGA-90" value="" style="edgeStyle=elbowEdgeStyle;elbow=vertical;endArrow=block;html=1;curved=0;rounded=0;endSize=8;startSize=8;endFill=0;" edge="1" parent="1" source="b0TugOnntlRWFown4FGA-85" target="b0TugOnntlRWFown4FGA-77">
          <mxGeometry width="50" height="50" relative="1" as="geometry">
            <mxPoint x="990" y="458" as="sourcePoint" />
            <mxPoint x="960" y="230" as="targetPoint" />
          </mxGeometry>
        </mxCell>
        <mxCell id="b0TugOnntlRWFown4FGA-91" value="MoveInfo" style="swimlane;fontStyle=0;childLayout=stackLayout;horizontal=1;startSize=26;fillColor=none;horizontalStack=0;resizeParent=1;resizeParentMax=0;resizeLast=0;collapsible=1;marginBottom=0;whiteSpace=wrap;html=1;" vertex="1" parent="1">
          <mxGeometry x="1680" y="200" width="280" height="182" as="geometry" />
        </mxCell>
        <mxCell id="b0TugOnntlRWFown4FGA-92" value="+ oldPos : Position" style="text;strokeColor=none;fillColor=none;align=left;verticalAlign=top;spacingLeft=4;spacingRight=4;overflow=hidden;rotatable=0;points=[[0,0.5],[1,0.5]];portConstraint=eastwest;whiteSpace=wrap;html=1;" vertex="1" parent="b0TugOnntlRWFown4FGA-91">
          <mxGeometry y="26" width="280" height="26" as="geometry" />
        </mxCell>
        <mxCell id="b0TugOnntlRWFown4FGA-93" value="+ newPos : Position" style="text;strokeColor=none;fillColor=none;align=left;verticalAlign=top;spacingLeft=4;spacingRight=4;overflow=hidden;rotatable=0;points=[[0,0.5],[1,0.5]];portConstraint=eastwest;whiteSpace=wrap;html=1;" vertex="1" parent="b0TugOnntlRWFown4FGA-91">
          <mxGeometry y="52" width="280" height="26" as="geometry" />
        </mxCell>
        <mxCell id="b0TugOnntlRWFown4FGA-94" value="+ capturedPiece : Piece*" style="text;strokeColor=none;fillColor=none;align=left;verticalAlign=top;spacingLeft=4;spacingRight=4;overflow=hidden;rotatable=0;points=[[0,0.5],[1,0.5]];portConstraint=eastwest;whiteSpace=wrap;html=1;" vertex="1" parent="b0TugOnntlRWFown4FGA-91">
          <mxGeometry y="78" width="280" height="26" as="geometry" />
        </mxCell>
        <mxCell id="b0TugOnntlRWFown4FGA-195" value="+ isEnPassant : bool" style="text;strokeColor=none;fillColor=none;align=left;verticalAlign=top;spacingLeft=4;spacingRight=4;overflow=hidden;rotatable=0;points=[[0,0.5],[1,0.5]];portConstraint=eastwest;whiteSpace=wrap;html=1;" vertex="1" parent="b0TugOnntlRWFown4FGA-91">
          <mxGeometry y="104" width="280" height="26" as="geometry" />
        </mxCell>
        <mxCell id="b0TugOnntlRWFown4FGA-196" value="+ isPromotion : bool" style="text;strokeColor=none;fillColor=none;align=left;verticalAlign=top;spacingLeft=4;spacingRight=4;overflow=hidden;rotatable=0;points=[[0,0.5],[1,0.5]];portConstraint=eastwest;whiteSpace=wrap;html=1;" vertex="1" parent="b0TugOnntlRWFown4FGA-91">
          <mxGeometry y="130" width="280" height="26" as="geometry" />
        </mxCell>
        <mxCell id="b0TugOnntlRWFown4FGA-95" value="+ ibi : InvisibleBoardInfo" style="text;strokeColor=none;fillColor=none;align=left;verticalAlign=top;spacingLeft=4;spacingRight=4;overflow=hidden;rotatable=0;points=[[0,0.5],[1,0.5]];portConstraint=eastwest;whiteSpace=wrap;html=1;" vertex="1" parent="b0TugOnntlRWFown4FGA-91">
          <mxGeometry y="156" width="280" height="26" as="geometry" />
        </mxCell>
        <mxCell id="b0TugOnntlRWFown4FGA-96" value="" style="edgeStyle=segmentEdgeStyle;endArrow=diamondThin;html=1;curved=0;rounded=0;endSize=8;startSize=8;endFill=1;entryX=1;entryY=0.5;entryDx=0;entryDy=0;exitX=-0.002;exitY=0.036;exitDx=0;exitDy=0;exitPerimeter=0;" edge="1" parent="1" source="b0TugOnntlRWFown4FGA-25" target="b0TugOnntlRWFown4FGA-4">
          <mxGeometry width="50" height="50" relative="1" as="geometry">
            <mxPoint x="1830" y="1210" as="sourcePoint" />
            <mxPoint x="1490" y="860" as="targetPoint" />
            <Array as="points">
              <mxPoint x="1480" y="1211" />
              <mxPoint x="1480" y="515" />
            </Array>
          </mxGeometry>
        </mxCell>
        <mxCell id="b0TugOnntlRWFown4FGA-98" value="InvisibleBoardInfo" style="swimlane;fontStyle=0;childLayout=stackLayout;horizontal=1;startSize=26;fillColor=none;horizontalStack=0;resizeParent=1;resizeParentMax=0;resizeLast=0;collapsible=1;marginBottom=0;whiteSpace=wrap;html=1;" vertex="1" parent="1">
          <mxGeometry x="2040" y="200" width="280" height="78" as="geometry" />
        </mxCell>
        <mxCell id="b0TugOnntlRWFown4FGA-99" value="+ wkc, wqc, bkc, bqc : bool" style="text;strokeColor=none;fillColor=none;align=left;verticalAlign=top;spacingLeft=4;spacingRight=4;overflow=hidden;rotatable=0;points=[[0,0.5],[1,0.5]];portConstraint=eastwest;whiteSpace=wrap;html=1;" vertex="1" parent="b0TugOnntlRWFown4FGA-98">
          <mxGeometry y="26" width="280" height="26" as="geometry" />
        </mxCell>
        <mxCell id="b0TugOnntlRWFown4FGA-100" value="+ en_passant_file : int" style="text;strokeColor=none;fillColor=none;align=left;verticalAlign=top;spacingLeft=4;spacingRight=4;overflow=hidden;rotatable=0;points=[[0,0.5],[1,0.5]];portConstraint=eastwest;whiteSpace=wrap;html=1;" vertex="1" parent="b0TugOnntlRWFown4FGA-98">
          <mxGeometry y="52" width="280" height="26" as="geometry" />
        </mxCell>
        <mxCell id="b0TugOnntlRWFown4FGA-101" value="" style="edgeStyle=segmentEdgeStyle;endArrow=diamondThin;html=1;curved=0;rounded=0;endSize=8;startSize=8;exitX=1;exitY=0.25;exitDx=0;exitDy=0;endFill=1;entryX=1;entryY=0.5;entryDx=0;entryDy=0;" edge="1" parent="1" source="b0TugOnntlRWFown4FGA-77" target="b0TugOnntlRWFown4FGA-8">
          <mxGeometry width="50" height="50" relative="1" as="geometry">
            <mxPoint x="1580" y="800" as="sourcePoint" />
            <mxPoint x="1450" y="580" as="targetPoint" />
            <Array as="points">
              <mxPoint x="1520" y="53" />
              <mxPoint x="1520" y="575" />
            </Array>
          </mxGeometry>
        </mxCell>
        <mxCell id="b0TugOnntlRWFown4FGA-102" value="TextUI" style="swimlane;fontStyle=0;childLayout=stackLayout;horizontal=1;startSize=26;fillColor=none;horizontalStack=0;resizeParent=1;resizeParentMax=0;resizeLast=0;collapsible=1;marginBottom=0;whiteSpace=wrap;html=1;" vertex="1" parent="1">
          <mxGeometry x="40" y="560" width="280" height="286" as="geometry" />
        </mxCell>
        <mxCell id="b0TugOnntlRWFown4FGA-103" value="- boardDisplay : vector&amp;lt;vector&amp;lt;char&amp;gt;&amp;gt;" style="text;strokeColor=none;fillColor=none;align=left;verticalAlign=top;spacingLeft=4;spacingRight=4;overflow=hidden;rotatable=0;points=[[0,0.5],[1,0.5]];portConstraint=eastwest;whiteSpace=wrap;html=1;" vertex="1" parent="b0TugOnntlRWFown4FGA-102">
          <mxGeometry y="26" width="280" height="26" as="geometry" />
        </mxCell>
        <mxCell id="b0TugOnntlRWFown4FGA-104" value="- historyDisplay : vector&amp;lt;string&amp;gt;" style="text;strokeColor=none;fillColor=none;align=left;verticalAlign=top;spacingLeft=4;spacingRight=4;overflow=hidden;rotatable=0;points=[[0,0.5],[1,0.5]];portConstraint=eastwest;whiteSpace=wrap;html=1;" vertex="1" parent="b0TugOnntlRWFown4FGA-102">
          <mxGeometry y="52" width="280" height="26" as="geometry" />
        </mxCell>
        <mxCell id="b0TugOnntlRWFown4FGA-105" value="- historyWidth : int" style="text;strokeColor=none;fillColor=none;align=left;verticalAlign=top;spacingLeft=4;spacingRight=4;overflow=hidden;rotatable=0;points=[[0,0.5],[1,0.5]];portConstraint=eastwest;whiteSpace=wrap;html=1;" vertex="1" parent="b0TugOnntlRWFown4FGA-102">
          <mxGeometry y="78" width="280" height="26" as="geometry" />
        </mxCell>
        <mxCell id="b0TugOnntlRWFown4FGA-106" value="- historyDepth : int" style="text;strokeColor=none;fillColor=none;align=left;verticalAlign=top;spacingLeft=4;spacingRight=4;overflow=hidden;rotatable=0;points=[[0,0.5],[1,0.5]];portConstraint=eastwest;whiteSpace=wrap;html=1;" vertex="1" parent="b0TugOnntlRWFown4FGA-102">
          <mxGeometry y="104" width="280" height="26" as="geometry" />
        </mxCell>
        <mxCell id="b0TugOnntlRWFown4FGA-291" value="" style="endArrow=none;html=1;rounded=0;exitX=0;exitY=0.5;exitDx=0;exitDy=0;entryX=1;entryY=0.5;entryDx=0;entryDy=0;" edge="1" parent="b0TugOnntlRWFown4FGA-102">
          <mxGeometry width="50" height="50" relative="1" as="geometry">
            <mxPoint y="130" as="sourcePoint" />
            <mxPoint x="280" y="130" as="targetPoint" />
          </mxGeometry>
        </mxCell>
        <mxCell id="b0TugOnntlRWFown4FGA-107" value="- updateBoardDisplay( latest : MoveInfo ) : void" style="text;strokeColor=none;fillColor=none;align=left;verticalAlign=top;spacingLeft=4;spacingRight=4;overflow=hidden;rotatable=0;points=[[0,0.5],[1,0.5]];portConstraint=eastwest;whiteSpace=wrap;html=1;" vertex="1" parent="b0TugOnntlRWFown4FGA-102">
          <mxGeometry y="130" width="280" height="26" as="geometry" />
        </mxCell>
        <mxCell id="b0TugOnntlRWFown4FGA-108" value="- updateHistoryDisplay() : void" style="text;strokeColor=none;fillColor=none;align=left;verticalAlign=top;spacingLeft=4;spacingRight=4;overflow=hidden;rotatable=0;points=[[0,0.5],[1,0.5]];portConstraint=eastwest;whiteSpace=wrap;html=1;" vertex="1" parent="b0TugOnntlRWFown4FGA-102">
          <mxGeometry y="156" width="280" height="26" as="geometry" />
        </mxCell>
        <mxCell id="b0TugOnntlRWFown4FGA-287" value="&lt;span&gt;+&amp;nbsp;moveUpdate( latest : MoveInfo ) : void&lt;/span&gt;" style="text;strokeColor=none;fillColor=none;align=left;verticalAlign=top;spacingLeft=4;spacingRight=4;overflow=hidden;rotatable=0;points=[[0,0.5],[1,0.5]];portConstraint=eastwest;whiteSpace=wrap;html=1;fontStyle=0" vertex="1" parent="b0TugOnntlRWFown4FGA-102">
          <mxGeometry y="182" width="280" height="26" as="geometry" />
        </mxCell>
        <mxCell id="b0TugOnntlRWFown4FGA-289" value="&lt;span&gt;+ setupUpdate( latest : MoveInfo ) : void&lt;/span&gt;" style="text;strokeColor=none;fillColor=none;align=left;verticalAlign=top;spacingLeft=4;spacingRight=4;overflow=hidden;rotatable=0;points=[[0,0.5],[1,0.5]];portConstraint=eastwest;whiteSpace=wrap;html=1;fontStyle=0" vertex="1" parent="b0TugOnntlRWFown4FGA-102">
          <mxGeometry y="208" width="280" height="26" as="geometry" />
        </mxCell>
        <mxCell id="b0TugOnntlRWFown4FGA-288" value="&lt;span&gt;+ undoUpdate( latest : MoveInfo ) : void&lt;/span&gt;" style="text;strokeColor=none;fillColor=none;align=left;verticalAlign=top;spacingLeft=4;spacingRight=4;overflow=hidden;rotatable=0;points=[[0,0.5],[1,0.5]];portConstraint=eastwest;whiteSpace=wrap;html=1;fontStyle=0" vertex="1" parent="b0TugOnntlRWFown4FGA-102">
          <mxGeometry y="234" width="280" height="26" as="geometry" />
        </mxCell>
        <mxCell id="b0TugOnntlRWFown4FGA-290" value="&lt;span&gt;-&amp;nbsp;output() : void&lt;/span&gt;" style="text;strokeColor=none;fillColor=none;align=left;verticalAlign=top;spacingLeft=4;spacingRight=4;overflow=hidden;rotatable=0;points=[[0,0.5],[1,0.5]];portConstraint=eastwest;whiteSpace=wrap;html=1;fontStyle=0" vertex="1" parent="b0TugOnntlRWFown4FGA-102">
          <mxGeometry y="260" width="280" height="26" as="geometry" />
        </mxCell>
        <mxCell id="b0TugOnntlRWFown4FGA-109" value="" style="edgeStyle=segmentEdgeStyle;endArrow=block;html=1;curved=0;rounded=0;endSize=8;startSize=8;exitX=0.5;exitY=0;exitDx=0;exitDy=0;endFill=0;" edge="1" parent="1" source="b0TugOnntlRWFown4FGA-102" target="b0TugOnntlRWFown4FGA-74">
          <mxGeometry width="50" height="50" relative="1" as="geometry">
            <mxPoint x="190" y="760" as="sourcePoint" />
            <mxPoint x="240" y="710" as="targetPoint" />
            <Array as="points">
              <mxPoint x="170" y="560" />
              <mxPoint x="170" y="520" />
              <mxPoint x="460" y="520" />
            </Array>
          </mxGeometry>
        </mxCell>
        <mxCell id="b0TugOnntlRWFown4FGA-110" value="" style="edgeStyle=segmentEdgeStyle;endArrow=block;html=1;curved=0;rounded=0;endSize=8;startSize=8;exitX=0.5;exitY=0;exitDx=0;exitDy=0;endFill=0;" edge="1" parent="1" source="b0TugOnntlRWFown4FGA-111" target="b0TugOnntlRWFown4FGA-74">
          <mxGeometry width="50" height="50" relative="1" as="geometry">
            <mxPoint x="690" y="760" as="sourcePoint" />
            <mxPoint x="680" y="730" as="targetPoint" />
            <Array as="points">
              <mxPoint x="740" y="520" />
              <mxPoint x="460" y="520" />
            </Array>
          </mxGeometry>
        </mxCell>
        <mxCell id="b0TugOnntlRWFown4FGA-111" value="GUI" style="swimlane;fontStyle=0;childLayout=stackLayout;horizontal=1;startSize=26;fillColor=none;horizontalStack=0;resizeParent=1;resizeParentMax=0;resizeLast=0;collapsible=1;marginBottom=0;whiteSpace=wrap;html=1;" vertex="1" parent="1">
          <mxGeometry x="600" y="560" width="280" height="428" as="geometry" />
        </mxCell>
        <mxCell id="b0TugOnntlRWFown4FGA-226" value="- DEFAULT_WIDTH : int" style="text;strokeColor=none;fillColor=none;align=left;verticalAlign=top;spacingLeft=4;spacingRight=4;overflow=hidden;rotatable=0;points=[[0,0.5],[1,0.5]];portConstraint=eastwest;whiteSpace=wrap;html=1;" vertex="1" parent="b0TugOnntlRWFown4FGA-111">
          <mxGeometry y="26" width="280" height="26" as="geometry" />
        </mxCell>
        <mxCell id="b0TugOnntlRWFown4FGA-227" value="- DEFAULT_HEIGHT : int" style="text;strokeColor=none;fillColor=none;align=left;verticalAlign=top;spacingLeft=4;spacingRight=4;overflow=hidden;rotatable=0;points=[[0,0.5],[1,0.5]];portConstraint=eastwest;whiteSpace=wrap;html=1;" vertex="1" parent="b0TugOnntlRWFown4FGA-111">
          <mxGeometry y="52" width="280" height="26" as="geometry" />
        </mxCell>
        <mxCell id="b0TugOnntlRWFown4FGA-112" value="- d : Display*" style="text;strokeColor=none;fillColor=none;align=left;verticalAlign=top;spacingLeft=4;spacingRight=4;overflow=hidden;rotatable=0;points=[[0,0.5],[1,0.5]];portConstraint=eastwest;whiteSpace=wrap;html=1;" vertex="1" parent="b0TugOnntlRWFown4FGA-111">
          <mxGeometry y="78" width="280" height="26" as="geometry" />
        </mxCell>
        <mxCell id="b0TugOnntlRWFown4FGA-113" value="- w : Window" style="text;strokeColor=none;fillColor=none;align=left;verticalAlign=top;spacingLeft=4;spacingRight=4;overflow=hidden;rotatable=0;points=[[0,0.5],[1,0.5]];portConstraint=eastwest;whiteSpace=wrap;html=1;" vertex="1" parent="b0TugOnntlRWFown4FGA-111">
          <mxGeometry y="104" width="280" height="26" as="geometry" />
        </mxCell>
        <mxCell id="b0TugOnntlRWFown4FGA-114" value="- s, width, height : int" style="text;strokeColor=none;fillColor=none;align=left;verticalAlign=top;spacingLeft=4;spacingRight=4;overflow=hidden;rotatable=0;points=[[0,0.5],[1,0.5]];portConstraint=eastwest;whiteSpace=wrap;html=1;" vertex="1" parent="b0TugOnntlRWFown4FGA-111">
          <mxGeometry y="130" width="280" height="26" as="geometry" />
        </mxCell>
        <mxCell id="b0TugOnntlRWFown4FGA-115" value="- colours[5] : unsigned long" style="text;strokeColor=none;fillColor=none;align=left;verticalAlign=top;spacingLeft=4;spacingRight=4;overflow=hidden;rotatable=0;points=[[0,0.5],[1,0.5]];portConstraint=eastwest;whiteSpace=wrap;html=1;" vertex="1" parent="b0TugOnntlRWFown4FGA-111">
          <mxGeometry y="156" width="280" height="26" as="geometry" />
        </mxCell>
        <mxCell id="b0TugOnntlRWFown4FGA-293" value="" style="endArrow=none;html=1;rounded=0;exitX=0;exitY=0.5;exitDx=0;exitDy=0;entryX=1;entryY=0.5;entryDx=0;entryDy=0;" edge="1" parent="b0TugOnntlRWFown4FGA-111">
          <mxGeometry width="50" height="50" relative="1" as="geometry">
            <mxPoint y="181.40999999999997" as="sourcePoint" />
            <mxPoint x="280" y="181.40999999999997" as="targetPoint" />
          </mxGeometry>
        </mxCell>
        <mxCell id="b0TugOnntlRWFown4FGA-116" value="- drawPiece( type : PieceType, p : Position, c : Colour ) : void" style="text;strokeColor=none;fillColor=none;align=left;verticalAlign=top;spacingLeft=4;spacingRight=4;overflow=hidden;rotatable=0;points=[[0,0.5],[1,0.5]];portConstraint=eastwest;whiteSpace=wrap;html=1;" vertex="1" parent="b0TugOnntlRWFown4FGA-111">
          <mxGeometry y="182" width="280" height="32" as="geometry" />
        </mxCell>
        <mxCell id="b0TugOnntlRWFown4FGA-117" value="- drawBackground() : void" style="text;strokeColor=none;fillColor=none;align=left;verticalAlign=top;spacingLeft=4;spacingRight=4;overflow=hidden;rotatable=0;points=[[0,0.5],[1,0.5]];portConstraint=eastwest;whiteSpace=wrap;html=1;" vertex="1" parent="b0TugOnntlRWFown4FGA-111">
          <mxGeometry y="214" width="280" height="26" as="geometry" />
        </mxCell>
        <mxCell id="b0TugOnntlRWFown4FGA-118" value="- drawBackground( p : Position ) : void" style="text;strokeColor=none;fillColor=none;align=left;verticalAlign=top;spacingLeft=4;spacingRight=4;overflow=hidden;rotatable=0;points=[[0,0.5],[1,0.5]];portConstraint=eastwest;whiteSpace=wrap;html=1;" vertex="1" parent="b0TugOnntlRWFown4FGA-111">
          <mxGeometry y="240" width="280" height="26" as="geometry" />
        </mxCell>
        <mxCell id="b0TugOnntlRWFown4FGA-228" value="+ reloadByMoveInfo( move : MoveInfo&amp;amp; ) : void" style="text;strokeColor=none;fillColor=none;align=left;verticalAlign=top;spacingLeft=4;spacingRight=4;overflow=hidden;rotatable=0;points=[[0,0.5],[1,0.5]];portConstraint=eastwest;whiteSpace=wrap;html=1;" vertex="1" parent="b0TugOnntlRWFown4FGA-111">
          <mxGeometry y="266" width="280" height="26" as="geometry" />
        </mxCell>
        <mxCell id="b0TugOnntlRWFown4FGA-229" value="+ fillRectangle( x : int, y : int, width : int, height : int, colour : unsigned long ) : void" style="text;strokeColor=none;fillColor=none;align=left;verticalAlign=top;spacingLeft=4;spacingRight=4;overflow=hidden;rotatable=0;points=[[0,0.5],[1,0.5]];portConstraint=eastwest;whiteSpace=wrap;html=1;" vertex="1" parent="b0TugOnntlRWFown4FGA-111">
          <mxGeometry y="292" width="280" height="32" as="geometry" />
        </mxCell>
        <mxCell id="b0TugOnntlRWFown4FGA-230" value="&lt;span&gt;+ moveUpdate( latest : MoveInfo ) : void&lt;/span&gt;" style="text;strokeColor=none;fillColor=none;align=left;verticalAlign=top;spacingLeft=4;spacingRight=4;overflow=hidden;rotatable=0;points=[[0,0.5],[1,0.5]];portConstraint=eastwest;whiteSpace=wrap;html=1;fontStyle=0" vertex="1" parent="b0TugOnntlRWFown4FGA-111">
          <mxGeometry y="324" width="280" height="26" as="geometry" />
        </mxCell>
        <mxCell id="b0TugOnntlRWFown4FGA-233" value="&lt;span&gt;+ output() : void&lt;/span&gt;" style="text;strokeColor=none;fillColor=none;align=left;verticalAlign=top;spacingLeft=4;spacingRight=4;overflow=hidden;rotatable=0;points=[[0,0.5],[1,0.5]];portConstraint=eastwest;whiteSpace=wrap;html=1;fontStyle=0" vertex="1" parent="b0TugOnntlRWFown4FGA-111">
          <mxGeometry y="350" width="280" height="26" as="geometry" />
        </mxCell>
        <mxCell id="b0TugOnntlRWFown4FGA-232" value="&lt;span&gt;+ setupUpdate( latest : MoveInfo ) : void&lt;/span&gt;" style="text;strokeColor=none;fillColor=none;align=left;verticalAlign=top;spacingLeft=4;spacingRight=4;overflow=hidden;rotatable=0;points=[[0,0.5],[1,0.5]];portConstraint=eastwest;whiteSpace=wrap;html=1;fontStyle=0" vertex="1" parent="b0TugOnntlRWFown4FGA-111">
          <mxGeometry y="376" width="280" height="26" as="geometry" />
        </mxCell>
        <mxCell id="b0TugOnntlRWFown4FGA-231" value="&lt;span&gt;+ undoUpdate( latest : MoveInfo ) : void&lt;/span&gt;" style="text;strokeColor=none;fillColor=none;align=left;verticalAlign=top;spacingLeft=4;spacingRight=4;overflow=hidden;rotatable=0;points=[[0,0.5],[1,0.5]];portConstraint=eastwest;whiteSpace=wrap;html=1;fontStyle=0" vertex="1" parent="b0TugOnntlRWFown4FGA-111">
          <mxGeometry y="402" width="280" height="26" as="geometry" />
        </mxCell>
        <mxCell id="b0TugOnntlRWFown4FGA-119" value="" style="edgeStyle=segmentEdgeStyle;endArrow=diamondThin;html=1;curved=0;rounded=0;endSize=8;startSize=8;exitX=0;exitY=0;exitDx=0;exitDy=0;endFill=0;entryX=1;entryY=0.5;entryDx=0;entryDy=0;" edge="1" parent="1" source="b0TugOnntlRWFown4FGA-85" target="b0TugOnntlRWFown4FGA-153">
          <mxGeometry width="50" height="50" relative="1" as="geometry">
            <mxPoint x="1040" y="480" as="sourcePoint" />
            <mxPoint x="860" y="850" as="targetPoint" />
            <Array as="points">
              <mxPoint x="1160" y="210" />
              <mxPoint x="1000" y="210" />
              <mxPoint x="1000" y="265" />
            </Array>
          </mxGeometry>
        </mxCell>
        <mxCell id="b0TugOnntlRWFown4FGA-121" value="" style="edgeStyle=segmentEdgeStyle;endArrow=diamondThin;html=1;curved=0;rounded=0;endSize=8;startSize=8;entryX=1;entryY=0.5;entryDx=0;entryDy=0;exitX=0;exitY=0;exitDx=0;exitDy=0;endFill=1;" edge="1" parent="1" source="b0TugOnntlRWFown4FGA-98" target="b0TugOnntlRWFown4FGA-95">
          <mxGeometry width="50" height="50" relative="1" as="geometry">
            <mxPoint x="2010" y="490" as="sourcePoint" />
            <mxPoint x="2020" y="470" as="targetPoint" />
            <Array as="points">
              <mxPoint x="2040" y="210" />
              <mxPoint x="2000" y="210" />
              <mxPoint x="2000" y="369" />
            </Array>
          </mxGeometry>
        </mxCell>
        <mxCell id="b0TugOnntlRWFown4FGA-122" value="" style="edgeStyle=segmentEdgeStyle;endArrow=diamondThin;html=1;curved=0;rounded=0;endSize=8;startSize=8;entryX=1;entryY=0.5;entryDx=0;entryDy=0;exitX=0;exitY=0;exitDx=0;exitDy=0;endFill=1;" edge="1" parent="1" source="b0TugOnntlRWFown4FGA-91" target="b0TugOnntlRWFown4FGA-86">
          <mxGeometry width="50" height="50" relative="1" as="geometry">
            <mxPoint x="1640" y="350" as="sourcePoint" />
            <mxPoint x="1590" y="387" as="targetPoint" />
            <Array as="points">
              <mxPoint x="1680" y="210" />
              <mxPoint x="1600" y="210" />
              <mxPoint x="1600" y="265" />
            </Array>
          </mxGeometry>
        </mxCell>
        <mxCell id="b0TugOnntlRWFown4FGA-139" value="" style="group;fontStyle=2" connectable="0" vertex="1" parent="1">
          <mxGeometry x="2060" y="720" width="990" height="258" as="geometry" />
        </mxCell>
        <mxCell id="b0TugOnntlRWFown4FGA-140" value="&lt;i&gt;Bot&lt;/i&gt;" style="swimlane;fontStyle=0;childLayout=stackLayout;horizontal=1;startSize=26;fillColor=none;horizontalStack=0;resizeParent=1;resizeParentMax=0;resizeLast=0;collapsible=1;marginBottom=0;whiteSpace=wrap;html=1;" vertex="1" parent="b0TugOnntlRWFown4FGA-139">
          <mxGeometry x="340" width="280" height="82" as="geometry" />
        </mxCell>
        <mxCell id="b0TugOnntlRWFown4FGA-141" value="+ autoMovable() : bool" style="text;strokeColor=none;fillColor=none;align=left;verticalAlign=top;spacingLeft=4;spacingRight=4;overflow=hidden;rotatable=0;points=[[0,0.5],[1,0.5]];portConstraint=eastwest;whiteSpace=wrap;html=1;" vertex="1" parent="b0TugOnntlRWFown4FGA-140">
          <mxGeometry y="26" width="280" height="24" as="geometry" />
        </mxCell>
        <mxCell id="b0TugOnntlRWFown4FGA-142" value="&lt;i&gt;+ makeMove() : MoveInfo&lt;/i&gt;" style="text;strokeColor=none;fillColor=none;align=left;verticalAlign=top;spacingLeft=4;spacingRight=4;overflow=hidden;rotatable=0;points=[[0,0.5],[1,0.5]];portConstraint=eastwest;whiteSpace=wrap;html=1;" vertex="1" parent="b0TugOnntlRWFown4FGA-140">
          <mxGeometry y="50" width="280" height="32" as="geometry" />
        </mxCell>
        <mxCell id="b0TugOnntlRWFown4FGA-143" value="Bot1" style="swimlane;fontStyle=0;childLayout=stackLayout;horizontal=1;startSize=26;fillColor=none;horizontalStack=0;resizeParent=1;resizeParentMax=0;resizeLast=0;collapsible=1;marginBottom=0;whiteSpace=wrap;html=1;" vertex="1" parent="b0TugOnntlRWFown4FGA-139">
          <mxGeometry x="20" y="200" width="280" height="58" as="geometry" />
        </mxCell>
        <mxCell id="b0TugOnntlRWFown4FGA-197" value="+ makeMove() : MoveInfo" style="text;strokeColor=none;fillColor=none;align=left;verticalAlign=top;spacingLeft=4;spacingRight=4;overflow=hidden;rotatable=0;points=[[0,0.5],[1,0.5]];portConstraint=eastwest;whiteSpace=wrap;html=1;" vertex="1" parent="b0TugOnntlRWFown4FGA-143">
          <mxGeometry y="26" width="280" height="32" as="geometry" />
        </mxCell>
        <mxCell id="b0TugOnntlRWFown4FGA-145" value="Bot2" style="swimlane;fontStyle=0;childLayout=stackLayout;horizontal=1;startSize=26;fillColor=none;horizontalStack=0;resizeParent=1;resizeParentMax=0;resizeLast=0;collapsible=1;marginBottom=0;whiteSpace=wrap;html=1;" vertex="1" parent="b0TugOnntlRWFown4FGA-139">
          <mxGeometry x="340" y="200" width="280" height="58" as="geometry" />
        </mxCell>
        <mxCell id="b0TugOnntlRWFown4FGA-146" value="+ makeMove() : MoveInfo" style="text;strokeColor=none;fillColor=none;align=left;verticalAlign=top;spacingLeft=4;spacingRight=4;overflow=hidden;rotatable=0;points=[[0,0.5],[1,0.5]];portConstraint=eastwest;whiteSpace=wrap;html=1;" vertex="1" parent="b0TugOnntlRWFown4FGA-145">
          <mxGeometry y="26" width="280" height="32" as="geometry" />
        </mxCell>
        <mxCell id="b0TugOnntlRWFown4FGA-147" value="Bot3" style="swimlane;fontStyle=0;childLayout=stackLayout;horizontal=1;startSize=26;fillColor=none;horizontalStack=0;resizeParent=1;resizeParentMax=0;resizeLast=0;collapsible=1;marginBottom=0;whiteSpace=wrap;html=1;" vertex="1" parent="b0TugOnntlRWFown4FGA-139">
          <mxGeometry x="660" y="200" width="280" height="58" as="geometry" />
        </mxCell>
        <mxCell id="b0TugOnntlRWFown4FGA-148" value="+ makeMove() : MoveInfo" style="text;strokeColor=none;fillColor=none;align=left;verticalAlign=top;spacingLeft=4;spacingRight=4;overflow=hidden;rotatable=0;points=[[0,0.5],[1,0.5]];portConstraint=eastwest;whiteSpace=wrap;html=1;" vertex="1" parent="b0TugOnntlRWFown4FGA-147">
          <mxGeometry y="26" width="280" height="32" as="geometry" />
        </mxCell>
        <mxCell id="b0TugOnntlRWFown4FGA-149" value="" style="edgeStyle=segmentEdgeStyle;endArrow=block;html=1;curved=0;rounded=0;endSize=8;startSize=8;exitX=0.5;exitY=0;exitDx=0;exitDy=0;endFill=0;" edge="1" parent="b0TugOnntlRWFown4FGA-139" source="b0TugOnntlRWFown4FGA-143" target="b0TugOnntlRWFown4FGA-142">
          <mxGeometry width="50" height="50" relative="1" as="geometry">
            <mxPoint x="140" y="130" as="sourcePoint" />
            <mxPoint x="489" y="90" as="targetPoint" />
            <Array as="points">
              <mxPoint x="160" y="120" />
              <mxPoint x="490" y="120" />
            </Array>
          </mxGeometry>
        </mxCell>
        <mxCell id="b0TugOnntlRWFown4FGA-150" value="" style="edgeStyle=segmentEdgeStyle;endArrow=block;html=1;curved=0;rounded=0;endSize=8;startSize=8;exitX=0.5;exitY=0;exitDx=0;exitDy=0;endFill=0;" edge="1" parent="b0TugOnntlRWFown4FGA-139" source="b0TugOnntlRWFown4FGA-147">
          <mxGeometry width="50" height="50" relative="1" as="geometry">
            <mxPoint x="830" y="200" as="sourcePoint" />
            <mxPoint x="490" y="82" as="targetPoint" />
            <Array as="points">
              <mxPoint x="797" y="120" />
              <mxPoint x="490" y="120" />
            </Array>
          </mxGeometry>
        </mxCell>
        <mxCell id="b0TugOnntlRWFown4FGA-151" value="" style="edgeStyle=segmentEdgeStyle;endArrow=block;html=1;curved=0;rounded=0;endSize=8;startSize=8;exitX=0.5;exitY=0;exitDx=0;exitDy=0;endFill=0;" edge="1" parent="b0TugOnntlRWFown4FGA-139" source="b0TugOnntlRWFown4FGA-145">
          <mxGeometry width="50" height="50" relative="1" as="geometry">
            <mxPoint x="440" y="132" as="sourcePoint" />
            <mxPoint x="490" y="82" as="targetPoint" />
          </mxGeometry>
        </mxCell>
        <mxCell id="b0TugOnntlRWFown4FGA-201" value="" style="edgeStyle=segmentEdgeStyle;endArrow=block;html=1;curved=0;rounded=0;endSize=8;startSize=8;exitX=0.5;exitY=0;exitDx=0;exitDy=0;endFill=0;" edge="1" parent="b0TugOnntlRWFown4FGA-139" source="b0TugOnntlRWFown4FGA-198">
          <mxGeometry width="50" height="50" relative="1" as="geometry">
            <mxPoint x="800" y="200" as="sourcePoint" />
            <mxPoint x="490" y="82" as="targetPoint" />
            <Array as="points">
              <mxPoint x="1120" y="120" />
              <mxPoint x="490" y="120" />
            </Array>
          </mxGeometry>
        </mxCell>
        <mxCell id="b0TugOnntlRWFown4FGA-234" value="Human" style="swimlane;fontStyle=0;childLayout=stackLayout;horizontal=1;startSize=26;fillColor=none;horizontalStack=0;resizeParent=1;resizeParentMax=0;resizeLast=0;collapsible=1;marginBottom=0;whiteSpace=wrap;html=1;" vertex="1" parent="b0TugOnntlRWFown4FGA-139">
          <mxGeometry x="20" width="280" height="82" as="geometry" />
        </mxCell>
        <mxCell id="b0TugOnntlRWFown4FGA-235" value="+ autoMovable() : bool" style="text;strokeColor=none;fillColor=none;align=left;verticalAlign=top;spacingLeft=4;spacingRight=4;overflow=hidden;rotatable=0;points=[[0,0.5],[1,0.5]];portConstraint=eastwest;whiteSpace=wrap;html=1;" vertex="1" parent="b0TugOnntlRWFown4FGA-234">
          <mxGeometry y="26" width="280" height="24" as="geometry" />
        </mxCell>
        <mxCell id="b0TugOnntlRWFown4FGA-236" value="&lt;span&gt;+ makeMove() : MoveInfo&lt;/span&gt;" style="text;strokeColor=none;fillColor=none;align=left;verticalAlign=top;spacingLeft=4;spacingRight=4;overflow=hidden;rotatable=0;points=[[0,0.5],[1,0.5]];portConstraint=eastwest;whiteSpace=wrap;html=1;fontStyle=2" vertex="1" parent="b0TugOnntlRWFown4FGA-234">
          <mxGeometry y="50" width="280" height="32" as="geometry" />
        </mxCell>
        <mxCell id="b0TugOnntlRWFown4FGA-198" value="Bot4" style="swimlane;fontStyle=0;childLayout=stackLayout;horizontal=1;startSize=26;fillColor=none;horizontalStack=0;resizeParent=1;resizeParentMax=0;resizeLast=0;collapsible=1;marginBottom=0;whiteSpace=wrap;html=1;" vertex="1" parent="1">
          <mxGeometry x="3040" y="920" width="280" height="58" as="geometry" />
        </mxCell>
        <mxCell id="b0TugOnntlRWFown4FGA-199" value="+ makeMove() : MoveInfo" style="text;strokeColor=none;fillColor=none;align=left;verticalAlign=top;spacingLeft=4;spacingRight=4;overflow=hidden;rotatable=0;points=[[0,0.5],[1,0.5]];portConstraint=eastwest;whiteSpace=wrap;html=1;" vertex="1" parent="b0TugOnntlRWFown4FGA-198">
          <mxGeometry y="26" width="280" height="32" as="geometry" />
        </mxCell>
        <mxCell id="b0TugOnntlRWFown4FGA-202" value="Game" style="swimlane;fontStyle=0;childLayout=stackLayout;horizontal=1;startSize=26;fillColor=none;horizontalStack=0;resizeParent=1;resizeParentMax=0;resizeLast=0;collapsible=1;marginBottom=0;whiteSpace=wrap;html=1;" vertex="1" parent="1">
          <mxGeometry x="1680" y="440" width="280" height="390" as="geometry" />
        </mxCell>
        <mxCell id="b0TugOnntlRWFown4FGA-203" value="- NUM_PLAYERS : int" style="text;strokeColor=none;fillColor=none;align=left;verticalAlign=top;spacingLeft=4;spacingRight=4;overflow=hidden;rotatable=0;points=[[0,0.5],[1,0.5]];portConstraint=eastwest;whiteSpace=wrap;html=1;" vertex="1" parent="b0TugOnntlRWFown4FGA-202">
          <mxGeometry y="26" width="280" height="26" as="geometry" />
        </mxCell>
        <mxCell id="b0TugOnntlRWFown4FGA-204" value="- board : Board*" style="text;strokeColor=none;fillColor=none;align=left;verticalAlign=top;spacingLeft=4;spacingRight=4;overflow=hidden;rotatable=0;points=[[0,0.5],[1,0.5]];portConstraint=eastwest;whiteSpace=wrap;html=1;" vertex="1" parent="b0TugOnntlRWFown4FGA-202">
          <mxGeometry y="52" width="280" height="26" as="geometry" />
        </mxCell>
        <mxCell id="b0TugOnntlRWFown4FGA-205" value="- tUI : unique_ptr&amp;lt;TextUI&amp;gt;" style="text;strokeColor=none;fillColor=none;align=left;verticalAlign=top;spacingLeft=4;spacingRight=4;overflow=hidden;rotatable=0;points=[[0,0.5],[1,0.5]];portConstraint=eastwest;whiteSpace=wrap;html=1;" vertex="1" parent="b0TugOnntlRWFown4FGA-202">
          <mxGeometry y="78" width="280" height="26" as="geometry" />
        </mxCell>
        <mxCell id="b0TugOnntlRWFown4FGA-210" value="- gui : unique_ptr&amp;lt;GUI&amp;gt;" style="text;strokeColor=none;fillColor=none;align=left;verticalAlign=top;spacingLeft=4;spacingRight=4;overflow=hidden;rotatable=0;points=[[0,0.5],[1,0.5]];portConstraint=eastwest;whiteSpace=wrap;html=1;" vertex="1" parent="b0TugOnntlRWFown4FGA-202">
          <mxGeometry y="104" width="280" height="26" as="geometry" />
        </mxCell>
        <mxCell id="b0TugOnntlRWFown4FGA-206" value="- playerTurn : int" style="text;strokeColor=none;fillColor=none;align=left;verticalAlign=top;spacingLeft=4;spacingRight=4;overflow=hidden;rotatable=0;points=[[0,0.5],[1,0.5]];portConstraint=eastwest;whiteSpace=wrap;html=1;" vertex="1" parent="b0TugOnntlRWFown4FGA-202">
          <mxGeometry y="130" width="280" height="26" as="geometry" />
        </mxCell>
        <mxCell id="b0TugOnntlRWFown4FGA-207" value="- players : vector&amp;lt;unique_ptr&amp;lt;Player&amp;gt;&amp;gt;" style="text;strokeColor=none;fillColor=none;align=left;verticalAlign=top;spacingLeft=4;spacingRight=4;overflow=hidden;rotatable=0;points=[[0,0.5],[1,0.5]];portConstraint=eastwest;whiteSpace=wrap;html=1;" vertex="1" parent="b0TugOnntlRWFown4FGA-202">
          <mxGeometry y="156" width="280" height="26" as="geometry" />
        </mxCell>
        <mxCell id="b0TugOnntlRWFown4FGA-208" value="- scores : vector&amp;lt;double&amp;gt;" style="text;strokeColor=none;fillColor=none;align=left;verticalAlign=top;spacingLeft=4;spacingRight=4;overflow=hidden;rotatable=0;points=[[0,0.5],[1,0.5]];portConstraint=eastwest;whiteSpace=wrap;html=1;" vertex="1" parent="b0TugOnntlRWFown4FGA-202">
          <mxGeometry y="182" width="280" height="26" as="geometry" />
        </mxCell>
        <mxCell id="b0TugOnntlRWFown4FGA-211" value="- mode : Mode" style="text;strokeColor=none;fillColor=none;align=left;verticalAlign=top;spacingLeft=4;spacingRight=4;overflow=hidden;rotatable=0;points=[[0,0.5],[1,0.5]];portConstraint=eastwest;whiteSpace=wrap;html=1;" vertex="1" parent="b0TugOnntlRWFown4FGA-202">
          <mxGeometry y="208" width="280" height="26" as="geometry" />
        </mxCell>
        <mxCell id="b0TugOnntlRWFown4FGA-297" value="" style="endArrow=none;html=1;rounded=0;exitX=0;exitY=0.5;exitDx=0;exitDy=0;entryX=1;entryY=0.5;entryDx=0;entryDy=0;" edge="1" parent="b0TugOnntlRWFown4FGA-202">
          <mxGeometry width="50" height="50" relative="1" as="geometry">
            <mxPoint y="234" as="sourcePoint" />
            <mxPoint x="280" y="234" as="targetPoint" />
          </mxGeometry>
        </mxCell>
        <mxCell id="b0TugOnntlRWFown4FGA-214" value="+ run() : void" style="text;strokeColor=none;fillColor=none;align=left;verticalAlign=top;spacingLeft=4;spacingRight=4;overflow=hidden;rotatable=0;points=[[0,0.5],[1,0.5]];portConstraint=eastwest;whiteSpace=wrap;html=1;" vertex="1" parent="b0TugOnntlRWFown4FGA-202">
          <mxGeometry y="234" width="280" height="26" as="geometry" />
        </mxCell>
        <mxCell id="b0TugOnntlRWFown4FGA-215" value="+ play() : void" style="text;strokeColor=none;fillColor=none;align=left;verticalAlign=top;spacingLeft=4;spacingRight=4;overflow=hidden;rotatable=0;points=[[0,0.5],[1,0.5]];portConstraint=eastwest;whiteSpace=wrap;html=1;" vertex="1" parent="b0TugOnntlRWFown4FGA-202">
          <mxGeometry y="260" width="280" height="26" as="geometry" />
        </mxCell>
        <mxCell id="b0TugOnntlRWFown4FGA-216" value="+ setup() : void" style="text;strokeColor=none;fillColor=none;align=left;verticalAlign=top;spacingLeft=4;spacingRight=4;overflow=hidden;rotatable=0;points=[[0,0.5],[1,0.5]];portConstraint=eastwest;whiteSpace=wrap;html=1;" vertex="1" parent="b0TugOnntlRWFown4FGA-202">
          <mxGeometry y="286" width="280" height="26" as="geometry" />
        </mxCell>
        <mxCell id="b0TugOnntlRWFown4FGA-217" value="+ nextTurn() : void" style="text;strokeColor=none;fillColor=none;align=left;verticalAlign=top;spacingLeft=4;spacingRight=4;overflow=hidden;rotatable=0;points=[[0,0.5],[1,0.5]];portConstraint=eastwest;whiteSpace=wrap;html=1;" vertex="1" parent="b0TugOnntlRWFown4FGA-202">
          <mxGeometry y="312" width="280" height="26" as="geometry" />
        </mxCell>
        <mxCell id="b0TugOnntlRWFown4FGA-218" value="+ previousTurn() : void" style="text;strokeColor=none;fillColor=none;align=left;verticalAlign=top;spacingLeft=4;spacingRight=4;overflow=hidden;rotatable=0;points=[[0,0.5],[1,0.5]];portConstraint=eastwest;whiteSpace=wrap;html=1;" vertex="1" parent="b0TugOnntlRWFown4FGA-202">
          <mxGeometry y="338" width="280" height="26" as="geometry" />
        </mxCell>
        <mxCell id="b0TugOnntlRWFown4FGA-219" value="+ printScores() : void" style="text;strokeColor=none;fillColor=none;align=left;verticalAlign=top;spacingLeft=4;spacingRight=4;overflow=hidden;rotatable=0;points=[[0,0.5],[1,0.5]];portConstraint=eastwest;whiteSpace=wrap;html=1;" vertex="1" parent="b0TugOnntlRWFown4FGA-202">
          <mxGeometry y="364" width="280" height="26" as="geometry" />
        </mxCell>
        <mxCell id="b0TugOnntlRWFown4FGA-220" value="" style="edgeStyle=segmentEdgeStyle;endArrow=diamondThin;html=1;curved=0;rounded=0;endSize=8;startSize=8;entryX=0;entryY=0.5;entryDx=0;entryDy=0;exitX=0.997;exitY=0.012;exitDx=0;exitDy=0;endFill=1;exitPerimeter=0;" edge="1" parent="1" source="b0TugOnntlRWFown4FGA-3" target="b0TugOnntlRWFown4FGA-204">
          <mxGeometry width="50" height="50" relative="1" as="geometry">
            <mxPoint x="1690" y="210" as="sourcePoint" />
            <mxPoint x="1470" y="249" as="targetPoint" />
            <Array as="points">
              <mxPoint x="1600" y="454" />
              <mxPoint x="1600" y="505" />
            </Array>
          </mxGeometry>
        </mxCell>
        <mxCell id="b0TugOnntlRWFown4FGA-274" style="edgeStyle=orthogonalEdgeStyle;rounded=0;orthogonalLoop=1;jettySize=auto;html=1;exitX=0;exitY=0;exitDx=0;exitDy=0;entryX=1;entryY=0.5;entryDx=0;entryDy=0;endArrow=diamondThin;endFill=1;endSize=8;" edge="1" parent="1" source="b0TugOnntlRWFown4FGA-267" target="b0TugOnntlRWFown4FGA-207">
          <mxGeometry relative="1" as="geometry">
            <Array as="points">
              <mxPoint x="2240" y="450" />
              <mxPoint x="2100" y="450" />
              <mxPoint x="2100" y="609" />
            </Array>
          </mxGeometry>
        </mxCell>
        <mxCell id="b0TugOnntlRWFown4FGA-267" value="&lt;i&gt;Player&lt;/i&gt;" style="swimlane;fontStyle=0;childLayout=stackLayout;horizontal=1;startSize=26;fillColor=none;horizontalStack=0;resizeParent=1;resizeParentMax=0;resizeLast=0;collapsible=1;marginBottom=0;whiteSpace=wrap;html=1;" vertex="1" parent="1">
          <mxGeometry x="2240" y="440" width="280" height="138" as="geometry" />
        </mxCell>
        <mxCell id="b0TugOnntlRWFown4FGA-268" value="- board : Board*" style="text;strokeColor=none;fillColor=none;align=left;verticalAlign=top;spacingLeft=4;spacingRight=4;overflow=hidden;rotatable=0;points=[[0,0.5],[1,0.5]];portConstraint=eastwest;whiteSpace=wrap;html=1;" vertex="1" parent="b0TugOnntlRWFown4FGA-267">
          <mxGeometry y="26" width="280" height="24" as="geometry" />
        </mxCell>
        <mxCell id="b0TugOnntlRWFown4FGA-269" value="- colour : Colour" style="text;strokeColor=none;fillColor=none;align=left;verticalAlign=top;spacingLeft=4;spacingRight=4;overflow=hidden;rotatable=0;points=[[0,0.5],[1,0.5]];portConstraint=eastwest;whiteSpace=wrap;html=1;fontStyle=2" vertex="1" parent="b0TugOnntlRWFown4FGA-267">
          <mxGeometry y="50" width="280" height="32" as="geometry" />
        </mxCell>
        <mxCell id="b0TugOnntlRWFown4FGA-298" value="" style="endArrow=none;html=1;rounded=0;exitX=0;exitY=0.5;exitDx=0;exitDy=0;entryX=1;entryY=0.5;entryDx=0;entryDy=0;" edge="1" parent="b0TugOnntlRWFown4FGA-267">
          <mxGeometry width="50" height="50" relative="1" as="geometry">
            <mxPoint y="80" as="sourcePoint" />
            <mxPoint x="280" y="80" as="targetPoint" />
          </mxGeometry>
        </mxCell>
        <mxCell id="b0TugOnntlRWFown4FGA-271" value="&lt;span&gt;+ makeMove() : MoveInfo&lt;/span&gt;" style="text;strokeColor=none;fillColor=none;align=left;verticalAlign=top;spacingLeft=4;spacingRight=4;overflow=hidden;rotatable=0;points=[[0,0.5],[1,0.5]];portConstraint=eastwest;whiteSpace=wrap;html=1;fontStyle=2" vertex="1" parent="b0TugOnntlRWFown4FGA-267">
          <mxGeometry y="82" width="280" height="32" as="geometry" />
        </mxCell>
        <mxCell id="b0TugOnntlRWFown4FGA-270" value="+ autoMovable() : bool" style="text;strokeColor=none;fillColor=none;align=left;verticalAlign=top;spacingLeft=4;spacingRight=4;overflow=hidden;rotatable=0;points=[[0,0.5],[1,0.5]];portConstraint=eastwest;whiteSpace=wrap;html=1;fontStyle=2" vertex="1" parent="b0TugOnntlRWFown4FGA-267">
          <mxGeometry y="114" width="280" height="24" as="geometry" />
        </mxCell>
        <mxCell id="b0TugOnntlRWFown4FGA-272" style="edgeStyle=orthogonalEdgeStyle;rounded=0;orthogonalLoop=1;jettySize=auto;html=1;exitX=0.5;exitY=0;exitDx=0;exitDy=0;endArrow=block;endFill=0;endSize=8;" edge="1" parent="1" source="b0TugOnntlRWFown4FGA-234" target="b0TugOnntlRWFown4FGA-267">
          <mxGeometry relative="1" as="geometry" />
        </mxCell>
        <mxCell id="b0TugOnntlRWFown4FGA-273" style="edgeStyle=orthogonalEdgeStyle;rounded=0;orthogonalLoop=1;jettySize=auto;html=1;exitX=0.5;exitY=0;exitDx=0;exitDy=0;endArrow=block;endFill=0;endSize=8;" edge="1" parent="1" source="b0TugOnntlRWFown4FGA-140" target="b0TugOnntlRWFown4FGA-267">
          <mxGeometry relative="1" as="geometry" />
        </mxCell>
      </root>
    </mxGraphModel>
  </diagram>
</mxfile>
